<svg xmlns="http://www.w3.org/2000/svg" width="37.075" height="25.963" viewBox="0 0 37.075 25.963"><g transform="translate(-368.184 161.925)"><path d="M401.012-137.925q5.191-2.387,10.563-4.348l-3.626,5.536.429,10.931" transform="translate(-23.857 -14.176)" fill="none" stroke="#fed070" stroke-linecap="round" stroke-linejoin="round" stroke-miterlimit="10" stroke-width="0.7"/><path d="M400.628-125.7q.042,5.149.083,10.3l7.186-3.27" transform="translate(-23.574 -26.357)" fill="none" stroke="#fed070" stroke-linecap="round" stroke-linejoin="round" stroke-miterlimit="10" stroke-width="0.7"/><path d="M395.108-150.659a34.511,34.511,0,0,0,12.651-1.155c6.058-2.052,4.947-7.305-5.87-9.258-6.844-1.235-14.6-.1-17.713,3.184-2.813,2.973,2.677,5.9,3.879,5.787" transform="translate(-10.899)" fill="none" stroke="#fed070" stroke-linecap="round" stroke-linejoin="round" stroke-miterlimit="10" stroke-width="0.7"/><path d="M384.934-99.223a9.349,9.349,0,0,0,4.242,3.281" transform="translate(-12.039 -45.819)" fill="none" stroke="#fed070" stroke-linecap="round" stroke-miterlimit="10" stroke-width="0.7"/><line x2="0.344" y2="10.568" transform="translate(372.551 -155.609)" fill="none" stroke="#fed070" stroke-linecap="round" stroke-miterlimit="10" stroke-width="0.7"/><path d="M429.608-87.395c5.682,1.076,12.311-.1,15.928-2.648" transform="translate(-44.875 -52.566)" fill="none" stroke="#fed070" stroke-linecap="round" stroke-miterlimit="10" stroke-width="0.7"/><line x2="0.126" y2="12.643" transform="translate(400.535 -155.252)" fill="none" stroke="#fed070" stroke-linecap="round" stroke-miterlimit="10" stroke-width="0.7"/><path d="M444.253-129.886a3.628,3.628,0,0,1,.874-.592" transform="translate(-55.64 -22.846)" fill="none" stroke="#fed070" stroke-linecap="round" stroke-miterlimit="10" stroke-width="0.7"/><path d="M462.078-133.415l.989-.053" transform="translate(-68.741 -20.648)" fill="none" stroke="#fed070" stroke-linecap="round" stroke-miterlimit="10" stroke-width="0.7"/><path d="M453.874-142.044l.977-.218" transform="translate(-62.711 -14.184)" fill="none" stroke="#fed070" stroke-linecap="round" stroke-miterlimit="10" stroke-width="0.7"/><path d="M472.815-143.989l.7.751" transform="translate(-76.633 -12.915)" fill="none" stroke="#fed070" stroke-linecap="round" stroke-miterlimit="10" stroke-width="0.7"/><path d="M444.321-153.4l1,.1" transform="translate(-55.69 -5.999)" fill="none" stroke="#fed070" stroke-linecap="round" stroke-miterlimit="10" stroke-width="0.7"/><path d="M428.709-150a2.642,2.642,0,0,1,.511-.856" transform="translate(-44.214 -7.867)" fill="none" stroke="#fed070" stroke-linecap="round" stroke-miterlimit="10" stroke-width="0.7"/><path d="M412.16-153.141a2.569,2.569,0,0,1,.674.544" transform="translate(-32.051 -6.188)" fill="none" stroke="#fed070" stroke-linecap="round" stroke-miterlimit="10" stroke-width="0.7"/><path d="M401.933-144.525l.982-.146" transform="translate(-24.533 -12.414)" fill="none" stroke="#fed070" stroke-linecap="round" stroke-miterlimit="10" stroke-width="0.7"/><path d="M403.315-136.2a3.3,3.3,0,0,1,.579-.637" transform="translate(-25.549 -18.173)" fill="none" stroke="#fed070" stroke-linecap="round" stroke-miterlimit="10" stroke-width="0.7"/><path d="M416.694-142.933a1.819,1.819,0,0,1,.6-.116" transform="translate(-35.383 -13.606)" fill="none" stroke="#fed070" stroke-linecap="round" stroke-miterlimit="10" stroke-width="0.7"/><path d="M428.414-97.723a1.7,1.7,0,0,1,1.481-.613,4.218,4.218,0,0,0,1.241.459c.887.054,1.587-.867,2.475-.892.6-.017,1.157.39,1.762.386.681,0,1.3-.529,1.978-.428.494.074.911.477,1.411.471.787-.011,1.3-1.015,2.087-1,.21,0,.412.082.622.092.6.028,1.059-.48,1.536-.838s1.284-.527,1.579-.007" transform="translate(-43.998 -44.935)" fill="none" stroke="#fed070" stroke-linecap="round" stroke-linejoin="round" stroke-miterlimit="10" stroke-width="0.7"/><path d="M383.733-107.984a.816.816,0,0,1,1.075.382,1.048,1.048,0,0,0,.164.335c.242.247.684-.022,1,.118.529.235.154,1.24.665,1.513.224.12.5.02.751.057.418.063.674.481.872.855" transform="translate(-11.156 -39.322)" fill="none" stroke="#fed070" stroke-linecap="round" stroke-linejoin="round" stroke-miterlimit="10" stroke-width="0.7"/><path d="M428.579-108.809a11.636,11.636,0,0,0,4.356.7,29.048,29.048,0,0,0,6.276-.359,11.577,11.577,0,0,0,5.548-2.571" transform="translate(-44.119 -37.137)" fill="none" stroke="#fed070" stroke-linecap="round" stroke-linejoin="round" stroke-miterlimit="10" stroke-width="0.7"/><path d="M428.4-112.059a31.739,31.739,0,0,0,8.4.43,16.73,16.73,0,0,0,7.785-2.5" transform="translate(-43.987 -34.862)" fill="none" stroke="#fed070" stroke-linecap="round" stroke-linejoin="round" stroke-miterlimit="10" stroke-width="0.7"/><path d="M384.211-117.051a2.911,2.911,0,0,0,.942,1.079,11.425,11.425,0,0,0,3.285,1.8" transform="translate(-11.507 -32.715)" fill="none" stroke="#fed070" stroke-linecap="round" stroke-linejoin="round" stroke-miterlimit="10" stroke-width="0.7"/><path d="M383.752-121.253a14.9,14.9,0,0,0,1.965,1.754,4.994,4.994,0,0,0,2.425.954" transform="translate(-11.17 -29.626)" fill="none" stroke="#fed070" stroke-linecap="round" stroke-linejoin="round" stroke-miterlimit="10" stroke-width="0.7"/><path d="M372.577-107.768c-1.27.548-2.947,1.2-3.611,2.414-2.216,4.05,5.168,6.81,7.108,7.239a51.426,51.426,0,0,0,22.112.286c2.811-.592,5.828-1.991,6.548-3.843.827-2.124-1.661-4.037-4.1-4.5" transform="translate(0 -39.538)" fill="none" stroke="#fed070" stroke-linecap="round" stroke-linejoin="round" stroke-miterlimit="10" stroke-width="0.7"/></g></svg>