<svg xmlns="http://www.w3.org/2000/svg" width="38.737" height="37.609" viewBox="0 0 38.737 37.609"><g transform="translate(-114.509 -535.183)"><path d="M151.817,538.73c-3.349-5.053-10.242-4.172-14.116-.7a26.065,26.065,0,0,0-8.194,16.487c-.005.006-.011.008-.016.014-2.859,3.961-5.795,9.126-11.149,9.483-1.414.094-4.561.824-3.681,2.953.678,1.637,3.074,1.126,4.524.575-.258,1.441-.379,3.163.521,4.347a2.189,2.189,0,0,0,3.6-.088c1.031-1.343.572-2.939.773-4.484s1.648-2.531,2.657-3.585c1.3-1.353,2.611-2.691,3.913-4.036a17.677,17.677,0,0,0,9.474-1.918,45.041,45.041,0,0,0,8.044-4.289C152.4,550.316,155.025,543.57,151.817,538.73Zm-25.332,24.3c-1.057,1.022-2.731,2.161-3.117,3.658-.406,1.574.541,4.05-1.142,5.109-2.7,1.7-2.518-3.486-2.294-4.71.04-.217-.175-.488-.414-.379a6.453,6.453,0,0,1-2.466.675c-1.582.044-2.481-1.189-.9-2.13s3.708-.568,5.384-1.387c3.365-1.645,6.111-5.631,8.2-8.712h.015a4.12,4.12,0,0,1,.4.738,4.729,4.729,0,0,1,.168,1.19.857.857,0,0,0,.15.4c.271.38.566.527.644.979C129.562,559.973,128.044,561.525,126.485,563.032Zm18.911-9.1c-4.347,2.532-9.121,4.862-14.186,5.192l.193-.2a.306.306,0,0,0,.319-.294,1.624,1.624,0,0,0-.24-.986c-.1-.151-.243-.243-.341-.383a1.461,1.461,0,0,1-.243-.762,2.706,2.706,0,0,0-.838-1.671,24.494,24.494,0,0,1,5.787-13.828,13.2,13.2,0,0,1,6.829-4.562c3.2-.7,7.363.7,8.73,3.852C153.778,545.75,150,551.246,145.4,553.928Z" transform="translate(0)" fill="#fed070"/><path d="M164.129,556.163a.824.824,0,0,0-.626.5.6.6,0,1,0,1.131.292C164.66,556.6,164.587,556.129,164.129,556.163Z" transform="translate(-27.914 -11.97)" fill="#fed070"/><path d="M169.9,549.566a.8.8,0,1,0-.76.831A.811.811,0,0,0,169.9,549.566Z" transform="translate(-30.696 -7.772)" fill="#fed070"/><path d="M170.182,555.832a.727.727,0,0,0-.037.492.473.473,0,0,0,.9-.04.726.726,0,0,0-.081-.486A.458.458,0,0,0,170.182,555.832Z" transform="translate(-31.732 -11.644)" fill="#fed070"/></g></svg>