<svg xmlns="http://www.w3.org/2000/svg" width="24.588" height="34.074" viewBox="0 0 24.588 34.074"><g transform="translate(4691.409 -1960.876)"><path d="M-4507.778,1974.191h0a.363.363,0,0,0,.275.053,6.372,6.372,0,0,0,3.161-1.583,6.554,6.554,0,0,0,2.1-6.062,6.415,6.415,0,0,0-4.471-5.363,5.737,5.737,0,0,0-1.355-.326,4.962,4.962,0,0,0-1.093-.009l-.126.02h-.009c-.1.015-.2.031-.3.051a6.545,6.545,0,0,0-5.21,4.408.405.405,0,0,0-.009.242.63.63,0,0,0,.352.209c.078.011.167-.012.287-.26.2-.419.411-.828.631-1.262l0-.008q.13-.255.264-.517l.121-.242.2.186.112.105c.052.049.084.078.115.11l.549.561,0,.006c.4.407.807.828,1.215,1.236.217.217.36.137.461.043a.318.318,0,0,0,0-.475c-.071-.087-.151-.167-.236-.253-.042-.043-.084-.085-.125-.129l-1.728-1.824.165-.138a5.517,5.517,0,0,1,3.227-1.34l.217-.016v.665c0,.252,0,.5,0,.757v.04c0,.8,0,1.623.012,2.435a.5.5,0,0,0,.147.323.256.256,0,0,0,.284.022.363.363,0,0,0,.193-.339c-.02-.807-.016-1.628-.012-2.421,0-.3,0-.592,0-.887,0-.084,0-.167.011-.255,0-.044,0-.088.007-.136l.01-.209.209.017a5.727,5.727,0,0,1,3.2,1.338l.173.139-.731.758c-.457.473-.907.939-1.356,1.406-.275.287-.129.437-.08.486a.368.368,0,0,0,.257.132.462.462,0,0,0,.311-.162c.113-.113.226-.23.335-.343.128-.134.26-.272.4-.405.278-.271.563-.544.84-.808l.017-.016.351-.335.162-.155.138.176a6.21,6.21,0,0,1,1.314,3.262l.023.224h-1.531c-.693,0-1.478,0-2.242,0-.186,0-.409.06-.412.328a.293.293,0,0,0,.074.217.507.507,0,0,0,.357.108h3.762l-.026.225a5.881,5.881,0,0,1-1.4,3.357l-.159.183-.152-.189c-.042-.052-.079-.1-.115-.148a2.925,2.925,0,0,0-.193-.233c-.6-.619-1.2-1.236-1.785-1.834a.47.47,0,0,0-.318-.166.288.288,0,0,0-.2.087.307.307,0,0,0-.111.207.5.5,0,0,0,.176.325c.184.189.369.376.555.563l.012.011.5.505c.247.254.492.509.741.769l.484.5-.161.14a5.392,5.392,0,0,1-2.7,1.291.359.359,0,0,0-.243.137.381.381,0,0,0-.048.291A.286.286,0,0,0-4507.778,1974.191Z" transform="translate(-164.67 0)" fill="#fed070"/><path d="M-4677.6,1999.929c.351,0,.419-.169.438-.3.135-.862.269-1.738.4-2.585l0-.019q.1-.686.21-1.371.154-1,.309-2.009l.025-.158q.158-1.02.315-2.04.316-2.054.63-4.109.139-.92.279-1.84l.015-.1q.169-1.118.339-2.235.234-1.523.469-3.044l.18-1.163q.1-.638.2-1.277l0-.033q.219-1.415.436-2.831l.06-.388c.09-.588.185-1.2.25-1.794a.368.368,0,0,0-.043-.275.427.427,0,0,0-.308-.085c-.3-.005-.6,0-.891,0h-1.793c-1.741,0-3.714,0-5.6.006a.52.52,0,0,1-.4-.127.53.53,0,0,1-.108-.413,18.443,18.443,0,0,0,.02-1.9,1.105,1.105,0,0,0-.238-.578,12.9,12.9,0,0,0-1-1.107c-.428-.434-.872-.868-1.3-1.288l-.542-.532a.285.285,0,0,0-.394-.066.278.278,0,0,0-.146.341.95.95,0,0,0,.238.319c.3.3.6.6.9.9.528.522,1.073,1.062,1.6,1.6a1.142,1.142,0,0,1,.276.691c.015.3.011.6.006.885,0,.232-.006.471,0,.7a.564.564,0,0,1-.128.432.59.59,0,0,1-.438.138c-1.155-.01-2.335-.009-3.377-.008h-1.939c-.8,0-1.622,0-2.431.005a.409.409,0,0,0-.3.082.381.381,0,0,0-.033.291c.183,1.189.357,2.355.551,3.647q.125.833.249,1.668l.007.051q.155,1.048.313,2.094.171,1.141.347,2.282l.016.105q.11.712.218,1.423.166,1.093.331,2.186l.46,3.037q.179,1.167.354,2.334.131.866.26,1.732.153,1.024.307,2.047.12.793.242,1.585c.134.87.272,1.77.4,2.658.053.365.125.428.477.429h9.267Zm-9.093-.622-4-26.384h17l-4.051,26.384Z" transform="translate(0 -4.98)" fill="#fed070"/><path d="M-4631.351,2224.4q1.321,0,2.641,0c.369,0,.444-.063.51-.416.034-.184.061-.375.087-.559.015-.1.029-.2.044-.3q.157-1.025.315-2.05v-.007c.225-1.454.457-2.957.679-4.436.205-1.36.409-2.743.606-4.08v-.01q.209-1.421.42-2.841c.04-.27.033-.432-.021-.495s-.218-.095-.5-.095h-5.021c-.479,0-.957,0-1.435,0h-.026c-1.19,0-2.42.008-3.631-.014a.482.482,0,0,0-.383.111.535.535,0,0,0-.042.436h0c.063.323.112.652.158.97l.025.164q.125.837.248,1.674l.015.1q.182,1.237.368,2.473.155,1.024.313,2.047v.008c.11.712.224,1.447.335,2.187q.155,1.04.308,2.081l0,.022c.124.844.252,1.715.383,2.572.062.407.121.453.574.455q.795,0,1.588,0h1.431Zm-2.48-.654h-.01a.454.454,0,0,1-.513-.445c-.14-.962-.289-1.939-.434-2.883l0-.029q-.142-.929-.282-1.858-.193-1.3-.382-2.592t-.38-2.58c-.116-.776-.239-1.567-.358-2.331q-.083-.528-.165-1.06l-.036-.233h9.668l-2.112,14.008h-2.6C-4632.18,2223.74-4633.017,2223.739-4633.832,2223.745Z" transform="translate(-50.625 -231.488)" fill="#fed070"/></g></svg>