<svg xmlns="http://www.w3.org/2000/svg" width="40.774" height="35.43" viewBox="0 0 40.774 35.43"><g transform="translate(9.723 -584.579)"><path d="M30.637,609.384a.308.308,0,0,0-.059-.01c-3.233-1.694-7.692-1.36-10.264,1.378-2.016,2.147-2.213,6.046.443,7.813,3.016,2.006,7.608.764,10.085-1.518C33.109,614.958,34.291,610.733,30.637,609.384Zm-10.5,7.349c-1.494-2.557.145-5.444,2.478-6.725,2.457-1.349,5.162-.989,7.669-.118a.346.346,0,0,0,.1.116C37,614.892,23.559,622.593,20.133,616.732Z" transform="translate(-15.385 -12.824)" fill="#fed070"/><path d="M40.144,624.549a.972.972,0,0,0-.337.244c-.088.1-.129.193-.242.24-.274.113-.168.561.126.457.363-.128.763-.181.861-.628A.282.282,0,0,0,40.144,624.549Z" transform="translate(-26.517 -21.558)" fill="#fed070"/><path d="M42.651,620.74a.605.605,0,0,0-.322.281,3.1,3.1,0,0,0-.136.474c-.139.521.7.741.8.221a2.875,2.875,0,0,0,.1-.541.69.69,0,0,0-.194-.4A.21.21,0,0,0,42.651,620.74Z" transform="translate(-28.013 -19.504)" fill="#fed070"/><path d="M26.683,613.5A2.214,2.214,0,0,0,25,615.415a.136.136,0,0,0,.23.1,9.526,9.526,0,0,1,1.581-1.7C26.959,613.708,26.873,613.439,26.683,613.5Z" transform="translate(-18.742 -15.606)" fill="#fed070"/><path d="M24.849,592.03a14.433,14.433,0,0,1-4.708-2.518c-.87-.823-1.506-1.855-2.312-2.735-1.446-1.578-3.4-2.784-5.531-1.9a.453.453,0,0,0-.213.177,5.91,5.91,0,0,0-2.9,1.566c-1.67,1.609-2.58,3.93-4.59,5.207-2.234,1.421-5.037,1.13-7.451,2.067-3.188,1.238-6.231,3.839-6.792,7.376-.727,4.578,4.069,4.531,5.868,7.713.816,1.443.409,3.268.565,4.835a11.4,11.4,0,0,0,.72,3.08,4.663,4.663,0,0,0,2.688,2.992c1.541.449,2.974-.471,4.158-1.35,2.455-1.821,4.074-3.977,7.34-4.338,4.851-.537,9.522-.594,13.716-3.493,3.13-2.164,5.6-5.613,5.644-9.526A9.357,9.357,0,0,0,24.849,592.03Zm-.328,17.847c-3.591,2.464-7.828,2.889-12.039,3.208-3.169.241-5.193,1.552-7.577,3.533-2.042,1.7-4.773,3.347-6.405.194-.994-1.921-1-3.912-1.272-5.99-.376-2.873-2.022-3.69-4.136-5.347-4.154-3.256-.336-8.291,3.2-10.146,3.125-1.638,6.938-1.343,9.544-3.942,1.947-1.942,4.266-5.085,6.912-5.749,2.614-.24,4.083,1.891,5.6,3.654a10.454,10.454,0,0,0,3.77,2.86c3.564,1.632,6.79,2.96,7.59,7.261C30.483,603.6,27.844,607.6,24.52,609.877Z" transform="translate(0)" fill="#fed070"/><path d="M15.427,652.342c-.277.07-.454.368-.686.524a1.655,1.655,0,0,1-.968.279.254.254,0,0,0,0,.507,2.169,2.169,0,0,0,1.236-.328c.289-.183.679-.5.6-.881A.148.148,0,0,0,15.427,652.342Z" transform="translate(-12.549 -36.572)" fill="#fed070"/><path d="M17.95,650.771c-.127.341.442.507.551.152.041-.133.175-.194.211-.34a.2.2,0,0,0-.089-.219C18.315,650.169,18.047,650.513,17.95,650.771Z" transform="translate(-14.926 -35.476)" fill="#fed070"/><path d="M55.58,637.532c-.765.185-1.482.638-2.24.888-.915.3-1.835.626-2.756.9-.211.064-.185.428.054.4a15.415,15.415,0,0,0,3.428-.713c.676-.229,1.614-.423,1.772-1.222A.213.213,0,0,0,55.58,637.532Z" transform="translate(-32.473 -28.577)" fill="#fed070"/><path d="M64.553,634.567a.262.262,0,0,0-.287.116c-.1.126-.183.259-.272.389-.192.279.271.553.457.267.086-.133.175-.263.255-.4a.263.263,0,0,0-.04-.308A.216.216,0,0,0,64.553,634.567Z" transform="translate(-39.764 -26.975)" fill="#fed070"/><path d="M67.817,631.548c-.37-.066-.7.394-.934.618s.131.623.381.382c.215-.208.7-.522.656-.864A.145.145,0,0,0,67.817,631.548Z" transform="translate(-41.303 -25.348)" fill="#fed070"/></g></svg>