<svg xmlns="http://www.w3.org/2000/svg" width="25" height="108.07" viewBox="0 0 25 108.07">
  <path id="Path_58" data-name="Path 58" d="M462.005,465.659a.689.689,0,0,0-.687-.684l-15.916,0-.094-.051c-11.237-6.264-18.181-1.614-20.04-.039l-.115.1-5.254,0,1.371-.766a21.472,21.472,0,0,0,8.748-10.139.691.691,0,0,0-.111-.66.678.678,0,0,0-.614-.251,22.35,22.35,0,0,0-11,4.059l-1.637,1.238,1.038-1.771a18.774,18.774,0,0,0,1.3-2.608.683.683,0,0,0-.723-.915,22.359,22.359,0,0,0-11,4.058l-1.636,1.238,1.038-1.771a18.961,18.961,0,0,0,1.3-2.614.684.684,0,0,0-.725-.909,22.376,22.376,0,0,0-11,4.058l-1.639,1.238,1.04-1.771a18.813,18.813,0,0,0,1.3-2.606.683.683,0,0,0-.723-.915,22.372,22.372,0,0,0-11,4.056l-1.635,1.236,1.037-1.768a19.414,19.414,0,0,0,1.3-2.614.7.7,0,0,0-.113-.658.688.688,0,0,0-.613-.25c-12.541,1.5-15.66,9.2-16.319,11.521l-.084.3H354.62a.687.687,0,0,0-.485.2.685.685,0,0,0,.483,1.168H368.8l.085.3c.048.168.107.36.178.565.974,2.822,4.5,9.539,16.145,10.928a.675.675,0,0,0,.618-.256.8.8,0,0,0,.1-.7,20.5,20.5,0,0,0-1.271-2.532l-1.018-1.747,1.617,1.213a22.454,22.454,0,0,0,10.979,4.016.681.681,0,0,0,.618-.256.615.615,0,0,0,.118-.632,18.975,18.975,0,0,0-1.292-2.6l-1.02-1.747,1.618,1.213a22.461,22.461,0,0,0,10.98,4.015.685.685,0,0,0,.619-.255.747.747,0,0,0,.1-.693,19.966,19.966,0,0,0-1.271-2.537l-1.023-1.75,1.621,1.216a22.444,22.444,0,0,0,10.979,4.016.7.7,0,0,0,.62-.256c.117-.147.137-.322.084-.747a23.806,23.806,0,0,0-1.259-2.481l-1.023-1.75,1.62,1.216a22.47,22.47,0,0,0,10.982,4.014.686.686,0,0,0,.716-.944,21.479,21.479,0,0,0-8.713-10.082l-1.364-.766h5.3l.1.069c8.935,5.974,18.224,1.034,20-.019l.1-.057,15.883,0A.688.688,0,0,0,462.005,465.659Zm-34.548-10.824.838-.16-.4.753c-1.673,3.148-5.576,8.559-12.93,9.429l-.662.078.231-.626C415.372,462.04,418.307,456.574,427.458,454.835Zm-14.483,9.856-.084.3h-4.017l1.376-.765a17.716,17.716,0,0,0,2.838-1.975l1.451-1.234-.816,1.722A12.469,12.469,0,0,0,412.975,464.691Zm1.563,5.616-1.452-1.234a17.8,17.8,0,0,0-2.805-1.95l-1.364-.766h3.974l.085.293c.05.172.109.361.18.569a13.173,13.173,0,0,0,.565,1.368Zm1.9-15.469.838-.16-.4.753c-1.674,3.148-5.576,8.559-12.929,9.429l-.663.078.233-.626C404.35,462.044,407.287,456.578,416.435,454.838Zm-14.48,9.854-.085.3h-4.011l1.37-.765a17.9,17.9,0,0,0,2.838-1.975l1.451-1.235-.816,1.722A12.525,12.525,0,0,0,401.954,464.693Zm1.56,5.616-1.451-1.231a17.834,17.834,0,0,0-2.8-1.952l-1.365-.765h3.974l.086.293c.05.172.107.361.18.569a13.391,13.391,0,0,0,.564,1.368Zm1.9-15.465.837-.159-.4.752c-1.67,3.147-5.571,8.557-12.93,9.427l-.662.078.231-.626C393.534,461.5,396.6,456.517,405.412,454.843Zm-14.48,9.853-.084.3-4.013,0,1.371-.766a17.966,17.966,0,0,0,2.839-1.975l1.452-1.233-.818,1.72A12.41,12.41,0,0,0,390.932,464.7Zm1.562,5.613-1.451-1.23a17.906,17.906,0,0,0-2.8-1.95l-1.365-.765,3.975,0,.085.3c.048.169.108.359.179.565a12.89,12.89,0,0,0,.565,1.368Zm1.9-15.464.838-.16-.4.753c-1.674,3.148-5.576,8.558-12.93,9.428l-.663.078.233-.626C382.51,461.5,385.574,456.521,394.391,454.845ZM379.91,464.7l-.085.3h-4.012l1.372-.765a17.855,17.855,0,0,0,2.838-1.974l1.452-1.233-.818,1.72A12.446,12.446,0,0,0,379.91,464.7Zm1.56,5.616-1.449-1.231a17.871,17.871,0,0,0-2.8-1.953l-1.365-.765h3.975l.086.3c.048.17.106.359.179.564a13.284,13.284,0,0,0,.564,1.37Zm-11.023-5.994c.838-2.268,3.771-7.734,12.922-9.472l.837-.16-.4.753c-1.673,3.148-5.576,8.558-12.929,9.427l-.662.078ZM383.812,475.9l.4.752-.837-.159c-8.815-1.671-11.883-6.648-12.928-9.466l-.233-.627.663.078C378.237,467.345,382.141,472.754,383.812,475.9Zm11.022,0,.4.752-.838-.159c-8.815-1.67-11.884-6.648-12.928-9.466l-.234-.627.665.078C389.258,467.341,393.162,472.75,394.834,475.9Zm11.021,0,.4.752-.837-.159c-9.145-1.733-12.087-7.2-12.928-9.466l-.231-.626.662.077C400.281,467.339,404.184,472.747,405.855,475.894Zm11.022,0,.4.752-.837-.159c-9.145-1.734-12.089-7.2-12.928-9.466l-.234-.626.664.077C411.3,467.336,415.2,472.745,416.877,475.891Zm11.022,0,.4.752-.838-.159c-9.149-1.732-12.09-7.2-12.929-9.466l-.231-.625.662.077C422.323,467.333,426.228,472.741,427.9,475.887Zm15.194-9.842a19.848,19.848,0,0,1-8.249,1.931,15.4,15.4,0,0,1-7.729-2.043l-.582-.331.559-.367c2.511-1.642,7.932-3.818,16,.07l.776.374Z" transform="translate(478.165 -353.936) rotate(90)" fill="#b26e47"/>
</svg>
