<svg xmlns="http://www.w3.org/2000/svg" width="55.888" height="50.812" viewBox="0 0 55.888 50.812"><g transform="translate(-57.444 -602.898) rotate(15)"><path d="M268.644,567.475a.4.4,0,0,0-.388-.381.4.4,0,0,0-.218-.085,3.007,3.007,0,0,0-1.693.348,4.347,4.347,0,0,0,.455-1.536.493.493,0,0,0-.078-.548.172.172,0,0,0-.026-.023.451.451,0,0,0-.256-.128c-7.715-1.015-16.483.3-22.169,5.952a35.49,35.49,0,0,0-5.872,7.7,7.748,7.748,0,0,0-3.191,1.276,4.671,4.671,0,0,0-.939,2.119,30.461,30.461,0,0,0-1.289,8.516c-2.187,1.126-4.41,2.186-6.573,3.353-1.222.659-2.445,1.356-3.618,2.1-.44.279-1.069.571-1.229,1.128-.326,1.138,1.4,3.1,2.06,3.892a11.662,11.662,0,0,0,5.029,3.6.357.357,0,0,0,.316-.035.272.272,0,0,0,.091-.053c3.081-2.712,5.267-6.9,7.309-10.426A39.953,39.953,0,0,0,241.231,593c-.218.976-.353,1.981-.474,2.969-.026.218.256.341.422.242a16,16,0,0,0,1.808-.9,7.16,7.16,0,0,0,1.273-1.361c.4.233.982-.078,1.382-.353.76-.521.729-1.729.713-2.59q1.506-.688,2.97-1.466c-.045.438-.059.881-.085,1.317a.024.024,0,0,0,.044.012,4.881,4.881,0,0,0,.661-1.664q.686-.377,1.36-.772a5.817,5.817,0,0,1-.392,1.222,2.35,2.35,0,0,1-1.163,1.091c-.224.115-.438.13-.673.262-.147.082-.092.357.091.336.719-.081,1.478-.064,1.948-.686-.02.143-.041.286-.06.428s.063.341.249.327a3.673,3.673,0,0,0,3.042-1.311,8.45,8.45,0,0,0,.829-4.139c.6-.416,1.194-.837,1.773-1.267C262.316,580.7,269.147,574.893,268.644,567.475Zm-34.169,16.307a6.912,6.912,0,0,1,1.174-3.032,5.962,5.962,0,0,1,2.411-1.35,36.414,36.414,0,0,0-3.749,10.621.241.241,0,0,0-.1.029c-.284.152-.572.3-.858.445A49.008,49.008,0,0,1,234.475,583.782Zm-9.33,17.647a30.944,30.944,0,0,0,3-3.086c.04-.052-.035-.111-.085-.084a11.728,11.728,0,0,0-3.171,2.9c-.068-.072-.139-.14-.207-.215a10.533,10.533,0,0,1-1.2-1.635c1.5-1.071,2.9-2.279,4.377-3.382a40.272,40.272,0,0,0,4.05-3.053c.057-.055-.015-.137-.081-.1a31.978,31.978,0,0,0-4.662,3.214c-1.315.969-2.656,1.885-3.9,2.952-.068-.125-.139-.249-.2-.377-.684-1.383-.235-1.142.936-1.846,3.451-2.077,6.769-4.332,10.342-6.2a.264.264,0,0,0,.24.057c.013.044.027.088.041.132a1.161,1.161,0,0,0-.534.23,2.864,2.864,0,0,0-.557.533c-.021.022.007.064.034.045a5.583,5.583,0,0,1,.657-.347,2.6,2.6,0,0,0,.468-.236c.184.605.365,1.211.58,1.808l.043.122c-2.851,3.266-5.636,6.626-8.4,9.966A11.335,11.335,0,0,1,225.145,601.43Zm3.761,2.51c-.6-.3-1.176-.609-1.729-.951a67.065,67.065,0,0,0,8.276-9.778,1.954,1.954,0,0,0,.2.386,60.052,60.052,0,0,1-3.3,5.51C231.263,600.737,229.926,602.261,228.906,603.939Zm16.725-11.317c.007-.016-.893,1.223-1.149.751a.288.288,0,0,0-.491,0,6.428,6.428,0,0,1-1.587,1.681,4.806,4.806,0,0,1-.9.4,6.9,6.9,0,0,0,.274-2.631q2.062-.694,4.068-1.585A3.7,3.7,0,0,1,245.631,592.622Zm8.561-3.8c-.3,1.445-1.3,1.9-2.589,2.049a24.63,24.63,0,0,1,.573-2.951q1.168-.71,2.292-1.468C254.385,587.241,254.352,588.041,254.193,588.82Zm.69-3.631c-5.669,3.935-11.845,6.41-18.361,8.5a.521.521,0,0,0-.3-.308c-.184-.4-.506-.781-.666-1.178-.26-.645-.528-1.288-.786-1.934a37.58,37.58,0,0,1,9.646-18.133,18.975,18.975,0,0,1,9.874-5.442,34.736,34.736,0,0,1,12.009-.714,5.289,5.289,0,0,1-.137.636,7.711,7.711,0,0,1-.57,1.331.22.22,0,0,0,.3.3,3.6,3.6,0,0,1,1.824-.553l.122,0C267.6,575.482,260.832,581.059,254.883,585.189Z" fill="#fed070"/><path d="M309.9,578.581c-.251.073-.5.155-.74.241a.17.17,0,0,0-.063-.13.366.366,0,0,0,.256-.4.361.361,0,0,0-.357-.315,4.425,4.425,0,0,0-.633.114c-.409.086-.313.639.027.721-.046.022-.092.044-.138.064a.228.228,0,0,0-.109.329,9.5,9.5,0,0,1-4.7,1.085.961.961,0,0,0,.3-.184.31.31,0,0,0-.217-.524,1.542,1.542,0,0,0-.59.21l-.528.26c-.174-.059-.35-.126-.529-.207-3.64-1.63-2.788-5.622-.8-8.231.1-.125-.111-.279-.216-.167-2.246,2.385-3.4,6.215-.439,8.621a5.719,5.719,0,0,0,2.158,1.065c-.1.064-.206.128-.3.182-.4.222-.048.8.355.607l.365-.178c-.034.023-.068.049-.1.075a2.715,2.715,0,0,1-.517.293c-.206.091-.158.372-.008.487a.3.3,0,0,0-.107.234.331.331,0,0,0,.328.328,1.8,1.8,0,0,0,1.116-.327.327.327,0,0,0-.229-.552.947.947,0,0,0-.3.072c.215-.136.388-.311.36-.526a.2.2,0,0,0-.143-.188.393.393,0,0,0-.185,0,.986.986,0,0,0,.365-.235.349.349,0,0,0,.049-.081,8.481,8.481,0,0,0,6.637-2.148A.364.364,0,0,0,309.9,578.581Z" transform="translate(-45.861 -3.927)" fill="#fed070"/><path d="M319.716,573.4a.325.325,0,0,0-.057.384.3.3,0,0,0,.291.146l-.033.008a.3.3,0,0,0,.161.586,5.246,5.246,0,0,0,.732-.2.29.29,0,0,0,.2-.312.281.281,0,0,0-.28-.247,4.472,4.472,0,0,0-.641.131,1.5,1.5,0,0,0,.721-.52,1.415,1.415,0,0,0,.3-2.421.844.844,0,0,0-.259-.285.364.364,0,0,0-.41-.537,2.3,2.3,0,0,0-.552.2.445.445,0,0,0-.3.365,1.44,1.44,0,0,0-.218.158,1.588,1.588,0,0,0-.108,2.267A1.389,1.389,0,0,0,319.716,573.4Zm.647-.525a.784.784,0,0,1-.313-.014.271.271,0,0,0,.207-.134A.236.236,0,0,0,320.363,572.875Zm-.687-.531a.786.786,0,0,0,.092.374c-.013-.01-.027-.016-.04-.027a.786.786,0,0,1-.248-.579A.362.362,0,0,0,319.676,572.344Zm.076-.994a.713.713,0,0,1,.124-.11,2.11,2.11,0,0,0-.119.373h0a.344.344,0,0,0-.237.185A1.126,1.126,0,0,1,319.752,571.35Zm1.272.979a.808.808,0,0,1-.191.3,3.19,3.19,0,0,0,.023-.494c.013-.012.028-.022.039-.034a.351.351,0,0,0,.056-.389.263.263,0,0,0,.026-.005A.8.8,0,0,1,321.024,572.329Z" transform="translate(-57.876 -3.161)" fill="#fed070"/><path d="M263.317,605.815c-.092.09-.171.175-.224.223-.259.237.121.608.383.383.176-.152.809-.554.531-.846a.233.233,0,0,0-.222-.07,2.654,2.654,0,0,0,.421-.426c.209-.3-.212-.585-.473-.4a.366.366,0,0,1,.16-.133c.321-.069.165-.6-.134-.486a1.348,1.348,0,0,0-.719.686.193.193,0,0,0,.09.245q-.119.162-.236.326a.387.387,0,0,0-.062.468C262.937,605.924,263.119,605.906,263.317,605.815Z" transform="translate(-24.534 -23.333)" fill="#fed070"/><path d="M263.665,611.186c.019-.018.041-.032.06-.052a.344.344,0,0,0-.105-.556c.025-.023.051-.045.075-.068a.3.3,0,0,0-.025-.43c.178-.273-.115-.7-.437-.485-.34.229-.663.488-.992.733a.3.3,0,0,0,.175.555.252.252,0,0,0,.171.348c-.015.011-.026.025-.042.036-.2.141-.086.494.176.417a3.543,3.543,0,0,0,.337-.12c-.225.212-.437.443-.652.655a.245.245,0,0,0,.12.424c-.064.064-.126.126-.188.183a.251.251,0,0,0,.215.428c-.1.091-.2.182-.3.264a.279.279,0,0,0,.158.508c-.076.056-.152.112-.227.164a.266.266,0,0,0,.269.459c.143-.076.3-.147.449-.225a3.13,3.13,0,0,0-.639.484c-.269.252.133.65.4.4a7.642,7.642,0,0,1,.734-.508.273.273,0,0,0-.21-.5,1.342,1.342,0,0,0-.248.1,1.853,1.853,0,0,0,.395-.271.293.293,0,0,0-.283-.487c-.013,0-.024.012-.036.017a2.1,2.1,0,0,0,.346-.323.3.3,0,0,0-.193-.5,2.2,2.2,0,0,0,.4-.4.233.233,0,0,0-.1-.353,3.256,3.256,0,0,0,.381-.339A.351.351,0,0,0,263.665,611.186Z" transform="translate(-24.106 -26.6)" fill="#fed070"/><path d="M263.371,625.166a.712.712,0,0,0-.193.028l.015-.008a.329.329,0,0,0-.229-.6,3.516,3.516,0,0,0,.434-.268.358.358,0,0,0-.038-.607c.026-.017.055-.03.081-.047a.3.3,0,0,0-.305-.522c-.253.13-.488.309-.725.464a.277.277,0,0,0,.087.5c-.034.026-.068.052-.1.077a.314.314,0,0,0,.231.571c-.124.078-.246.159-.368.238a.311.311,0,0,0,.249.563l-.054.033a.338.338,0,0,0,.34.583c.279-.153.66-.285.825-.572A.289.289,0,0,0,263.371,625.166Z" transform="translate(-24.139 -34.666)" fill="#fed070"/><path d="M277.035,591.317a2.072,2.072,0,0,0,.373-.265c.308-.3-.1-.876-.475-.616a2.011,2.011,0,0,0-.335.314C276.329,591.041,276.674,591.543,277.035,591.317Z" transform="translate(-32.698 -15.201)" fill="#fed070"/><path d="M276.475,594.336a.3.3,0,0,0,.329.456c-.313.158-.076.7.268.588a1.66,1.66,0,0,0,.612-.267.323.323,0,0,0-.226-.546.817.817,0,0,0-.263.054,3.258,3.258,0,0,0,.355-.193.3.3,0,0,0-.1-.562.832.832,0,0,0,.146-.161.324.324,0,0,0-.278-.484,2.272,2.272,0,0,0-.987.457A.357.357,0,0,0,276.475,594.336Z" transform="translate(-32.493 -16.896)" fill="#fed070"/><path d="M278.42,598.6a4.353,4.353,0,0,0-.62.421.29.29,0,0,0-.056.417c-.249.18.028.653.336.467a1.491,1.491,0,0,0,.394-.321.216.216,0,0,0-.043-.313,2.361,2.361,0,0,0,.318-.244C278.986,598.807,278.687,598.474,278.42,598.6Z" transform="translate(-33.38 -20.08)" fill="#fed070"/><path d="M278.341,603.17a2.259,2.259,0,0,0,.161-.269.183.183,0,0,0-.2-.265,2.252,2.252,0,0,0-.3.087C277.472,602.915,278.023,603.628,278.341,603.17Z" transform="translate(-33.458 -22.493)" fill="#fed070"/><path d="M278.269,603.815a5.3,5.3,0,0,1-.565.338.326.326,0,0,0-.116.442.3.3,0,0,0,.295.15c-.105.055-.207.12-.3.171-.361.192-.034.759.321.55.242-.142.571-.263.648-.559a.213.213,0,0,0-.146-.257.5.5,0,0,0-.23-.011,2.707,2.707,0,0,0,.495-.307C278.957,604.1,278.58,603.614,278.269,603.815Z" transform="translate(-33.246 -23.169)" fill="#fed070"/><path d="M277.387,609.885a4.966,4.966,0,0,0,.826-.326.358.358,0,0,0-.177-.661.428.428,0,0,0,.159-.479c-.08-.165-.361-.166-.5-.1-.217.1-.412.248-.633.35-.267.122-.159.519.074.593l-.012.006C276.786,609.431,277.027,610.016,277.387,609.885Z" transform="translate(-32.94 -25.851)" fill="#fed070"/><path d="M278.272,612.533a.956.956,0,0,0-.306.1,1.862,1.862,0,0,0,.332-.282.3.3,0,0,0,.045-.351c-.013-.02-.03-.04-.045-.059a.282.282,0,0,0-.282-.075,4.084,4.084,0,0,0-.9.568c-.324.23-.025.766.317.541.038-.025.079-.05.119-.075-.1.077-.2.154-.294.22a.3.3,0,0,0,.176.555c-.088.076-.173.151-.255.216-.285.226.091.717.392.507a2.677,2.677,0,0,0,.844-.687.3.3,0,0,0-.308-.439,1.02,1.02,0,0,0,.389-.349C278.579,612.766,278.477,612.509,278.272,612.533Z" transform="translate(-32.98 -27.976)" fill="#fed070"/><path d="M277.321,619.489c.328-.133,1.021-.378,1-.823a.2.2,0,0,0-.139-.183.657.657,0,0,0-.515.137,3.218,3.218,0,0,1-.505.274.319.319,0,0,0-.216.38A.311.311,0,0,0,277.321,619.489Z" transform="translate(-32.953 -31.912)" fill="#fed070"/><path d="M277.6,620.946c-.022.006-.043.015-.064.021a3.242,3.242,0,0,0,.368-.323.187.187,0,0,0-.18-.31,3,3,0,0,0-.5.164.3.3,0,0,0,.059.585c-.081.047-.16.1-.24.147l-.529.322a.357.357,0,0,0,.36.615,4.375,4.375,0,0,0,1.068-.641A.35.35,0,0,0,277.6,620.946Z" transform="translate(-32.599 -33.018)" fill="#fed070"/><path d="M291.808,582.775l.006,0a.4.4,0,0,0-.3-.721,4.766,4.766,0,0,0-.886.375c-.386.172-.111.826.289.686.049-.017.1-.033.151-.049-.183.107-.362.223-.537.323a.428.428,0,0,0,.431.738,6.676,6.676,0,0,0,1.087-.642A.421.421,0,0,0,291.808,582.775Z" transform="translate(-40.915 -10.248)" fill="#fed070"/><path d="M292.023,586.852a1,1,0,0,0-.625.255l-.562.349a.361.361,0,0,0,.364.623l.623-.327a.929.929,0,0,0,.528-.469C292.447,587.054,292.212,586.878,292.023,586.852Z" transform="translate(-41.119 -13.107)" fill="#fed070"/><path d="M291.779,589.867c-.345-.071-.737.207-1.044.347a.321.321,0,0,0-.114.436.326.326,0,0,0,.435.114c.286-.122.72-.215.886-.5A.275.275,0,0,0,291.779,589.867Z" transform="translate(-41.07 -14.896)" fill="#fed070"/><path d="M291.289,592.424a.3.3,0,0,0-.106.4.3.3,0,0,0,.4.106,1.678,1.678,0,0,0,.748-.5c.085-.121-.033-.251-.152-.265A1.792,1.792,0,0,0,291.289,592.424Z" transform="translate(-41.407 -16.268)" fill="#fed070"/><path d="M291.627,593.719a1.533,1.533,0,0,0-.641.3l-.6.382a.335.335,0,0,0,0,.568c-.248.181-.1.641.246.537l.517-.156a1.073,1.073,0,0,0,.482-.224.282.282,0,0,0-.124-.468.794.794,0,0,0-.178,0l.023-.013a1.528,1.528,0,0,0,.567-.413A.338.338,0,0,0,291.627,593.719Z" transform="translate(-40.861 -17.192)" fill="#fed070"/><path d="M291.585,597.588a2.524,2.524,0,0,0-1.164.615.324.324,0,0,0-.113.429.317.317,0,0,0,.429.113c.173-.114.35-.22.533-.317a2.035,2.035,0,0,0,.529-.322A.306.306,0,0,0,291.585,597.588Z" transform="translate(-40.884 -19.493)" fill="#fed070"/><path d="M291.006,601.339a1.773,1.773,0,0,0,.885-.385.308.308,0,0,0-.1-.5c.007,0,.016-.008.024-.013a.32.32,0,0,0-.245-.582,3.163,3.163,0,0,0-.736.295c-.257.111-.163.475.053.565-.015.005-.029.013-.044.017A.314.314,0,0,0,291.006,601.339Z" transform="translate(-41.094 -20.842)" fill="#fed070"/><path d="M291.475,603.96l-.064.039.007-.007a.149.149,0,0,0-.1-.251,2.039,2.039,0,0,0-.868.272c-.287.136-.042.541.241.428a.3.3,0,0,0-.036.49c-.311.11-.235.676.121.629.081-.011.175-.023.27-.042-.187.07-.371.152-.555.229a.319.319,0,0,0-.216.38.312.312,0,0,0,.38.216l.147-.049-.386.229c-.357.209-.043.728.321.55.23-.113.466-.219.69-.343a.821.821,0,0,1,.126-1.023.334.334,0,0,0-.32-.236.6.6,0,0,0,.451-.383.3.3,0,0,0-.208-.366c.114-.06.228-.119.341-.18C292.2,604.335,291.849,603.737,291.475,603.96Z" transform="translate(-40.878 -23.153)" fill="#fed070"/><path d="M291.338,611.44a1.1,1.1,0,0,0-.414.154.847.847,0,0,1-.355.122.328.328,0,0,0,0,.655c.432.019,1-.132,1.08-.62A.258.258,0,0,0,291.338,611.44Z" transform="translate(-40.876 -27.729)" fill="#fed070"/><path d="M309.918,572.313c.128-.143.292-.235.422-.374a.284.284,0,0,0-.2-.479,1.044,1.044,0,0,0-.734.343C309.062,572.115,309.608,572.66,309.918,572.313Z" transform="translate(-52.202 -3.955)" fill="#fed070"/><path d="M308.295,575.964l.552-.2a2.262,2.262,0,0,0,.552-.23.36.36,0,0,0-.276-.655,2.321,2.321,0,0,0-.554.226l-.533.244C307.69,575.5,307.935,576.094,308.295,575.964Z" transform="translate(-51.353 -5.984)" fill="#fed070"/><path d="M309.324,577.814a3.617,3.617,0,0,0-1.031.342.348.348,0,0,0-.236.415.339.339,0,0,0,.415.235,3.907,3.907,0,0,0,1.06-.491A.3.3,0,0,0,309.324,577.814Z" transform="translate(-51.457 -7.733)" fill="#fed070"/><path d="M308.116,581.055l-.088.043c-.281.132-.169.549.077.628l-.127.075a.289.289,0,0,0,.16.535l-.012,0c-.325.107-.181.627.141.513.229-.081.613-.144.673-.427a.144.144,0,0,0-.036-.139.542.542,0,0,0-.552-.028,2.96,2.96,0,0,0,.456-.264.29.29,0,0,0,.117-.356.3.3,0,0,0-.111-.127c.036-.017.074-.03.109-.048a.362.362,0,0,0-.118-.657,1.024,1.024,0,0,0,.384-.212.356.356,0,0,0-.249-.6,3.01,3.01,0,0,0-1.037.449A.334.334,0,0,0,308.116,581.055Z" transform="translate(-51.278 -9.029)" fill="#fed070"/><path d="M308.018,588.9a2.7,2.7,0,0,0,1.235-.48.337.337,0,0,0-.32-.56.258.258,0,0,0-.12-.42.658.658,0,0,0-.22,0,1.059,1.059,0,0,0,.3-.128.274.274,0,0,0-.137-.505,1.667,1.667,0,0,0-.887.35.291.291,0,0,0,.049.513l-.043.016c-.347.124-.2.676.154.559l.3-.1a4.681,4.681,0,0,1-.468.181A.3.3,0,0,0,308.018,588.9Z" transform="translate(-51.221 -13.076)" fill="#fed070"/><path d="M308.619,600.245a4.469,4.469,0,0,0-.893.526.346.346,0,0,0,.069.613c-.339.133-.18.69.177.567a2.1,2.1,0,0,0,.588-.234.271.271,0,0,0-.135-.5.785.785,0,0,0-.139.013,3,3,0,0,0,.653-.435A.331.331,0,0,0,308.619,600.245Z" transform="translate(-51.174 -21.064)" fill="#fed070"/><path d="M308.5,604.777a1.561,1.561,0,0,0-.689.149.323.323,0,0,0,.171.623c.306-.077.631-.225.671-.57A.209.209,0,0,0,308.5,604.777Z" transform="translate(-51.184 -23.764)" fill="#fed070"/><path d="M322.212,581.424c.256-.074.689-.111.809-.387a.168.168,0,0,0-.058-.221c-.243-.177-.639.01-.9.076A.276.276,0,0,0,322.212,581.424Z" transform="translate(-59.68 -9.475)" fill="#fed070"/><path d="M322.748,582.129a5.032,5.032,0,0,1-.812.246c-.386.064-.3.741.094.69.088-.011.177-.024.266-.04a2.03,2.03,0,0,1-.273.1.28.28,0,0,0,.149.54c.287-.068.751-.193.841-.511a.23.23,0,0,0-.161-.284,1.737,1.737,0,0,0,.173-.082C323.368,582.587,323.141,582,322.748,582.129Z" transform="translate(-59.57 -10.289)" fill="#fed070"/><path d="M322.565,586.07c-.34.113-.195.655.149.54.24-.08.613-.145.685-.431a.156.156,0,0,0-.041-.152C323.119,585.836,322.819,585.985,322.565,586.07Z" transform="translate(-59.977 -12.563)" fill="#fed070"/><path d="M279.4,581.256c-.342-.065-.652.3-.865.531a3.631,3.631,0,0,0-.669.98.209.209,0,0,0,.361.211,6.624,6.624,0,0,1,.7-.861c.209-.21.549-.391.591-.7A.165.165,0,0,0,279.4,581.256Z" transform="translate(-33.494 -9.777)" fill="#fed070"/><path d="M286.663,577.124a.261.261,0,0,0,0,.522A.261.261,0,0,0,286.663,577.124Z" transform="translate(-38.591 -7.324)" fill="#fed070"/><path d="M239.65,638.742a50.03,50.03,0,0,0,4.5-4.553.043.043,0,0,0-.06-.06,49.959,49.959,0,0,0-4.518,4.533A.057.057,0,0,0,239.65,638.742Z" transform="translate(-10.724 -41.218)" fill="#fed070"/></g></svg>