<svg xmlns="http://www.w3.org/2000/svg" width="50.267" height="51.066" viewBox="0 0 50.267 51.066">
  <g id="Group_12" data-name="Group 12" transform="translate(-213.135 -125.361)">
    <g id="Group_11" data-name="Group 11" transform="translate(213.135 125.361)">
      <path id="Path_50" data-name="Path 50" d="M9307.79,4413.958h-21.059a14.736,14.736,0,0,0-14.6,14.833v21.4a14.738,14.738,0,0,0,14.6,14.835h21.059a14.745,14.745,0,0,0,14.608-14.835v-21.4A14.743,14.743,0,0,0,9307.79,4413.958Zm10.676,36.231a10.772,10.772,0,0,1-10.676,10.846h-21.059a10.772,10.772,0,0,1-10.673-10.846v-21.4a10.771,10.771,0,0,1,10.673-10.844h21.059a10.771,10.771,0,0,1,10.676,10.844Z" transform="translate(-9272.132 -4413.958)" fill="#6b6b6b"/>
      <path id="Path_51" data-name="Path 51" d="M9298.564,4426.846a13.958,13.958,0,1,0,13.55,13.949A13.768,13.768,0,0,0,9298.564,4426.846Zm0,23.858a9.91,9.91,0,1,1,9.625-9.909A9.781,9.781,0,0,1,9298.564,4450.7Z" transform="translate(-9273.437 -4415.262)" fill="#6b6b6b"/>
      <ellipse id="Ellipse_1" data-name="Ellipse 1" cx="1.963" cy="1.963" rx="1.963" ry="1.963" transform="translate(36.913 9.588)" fill="#6b6b6b"/>
    </g>
  </g>
</svg>
