<svg xmlns="http://www.w3.org/2000/svg" width="24.517" height="24.516" viewBox="0 0 24.517 24.516"><path d="M9289.524,4413.959h-10.271a7.129,7.129,0,0,0-7.121,7.121v10.273a7.131,7.131,0,0,0,7.121,7.122h10.271a7.134,7.134,0,0,0,7.124-7.122V4421.08A7.133,7.133,0,0,0,9289.524,4413.959Zm5.206,17.394a5.211,5.211,0,0,1-5.206,5.206h-10.271a5.211,5.211,0,0,1-5.205-5.206V4421.08a5.212,5.212,0,0,1,5.205-5.206h10.271a5.211,5.211,0,0,1,5.206,5.206Z" transform="translate(-9272.132 -4413.959)" fill="#331405"/><path d="M9291.625,4426.847a6.608,6.608,0,1,0,6.608,6.607A6.614,6.614,0,0,0,9291.625,4426.847Zm0,11.3a4.692,4.692,0,1,1,4.694-4.694A4.7,4.7,0,0,1,9291.625,4438.147Z" transform="translate(-9279.369 -4421.196)" fill="#331405"/><ellipse cx="0.958" cy="0.958" rx="0.958" ry="0.958" transform="translate(18.004 4.597)" fill="#331405"/></svg>