<svg xmlns="http://www.w3.org/2000/svg" width="17.928" height="17.927" viewBox="0 0 17.928 17.927"><path d="M9284.85,4413.958h-7.511a5.213,5.213,0,0,0-5.207,5.207v7.512a5.214,5.214,0,0,0,5.207,5.208h7.511a5.217,5.217,0,0,0,5.21-5.208v-7.512A5.216,5.216,0,0,0,9284.85,4413.958Zm3.808,12.719a3.811,3.811,0,0,1-3.808,3.807h-7.511a3.811,3.811,0,0,1-3.807-3.807v-7.512a3.812,3.812,0,0,1,3.807-3.807h7.511a3.811,3.811,0,0,1,3.808,3.807Z" transform="translate(-9272.132 -4413.958)" fill="#fff"/><path d="M9289.85,4426.846a4.832,4.832,0,1,0,4.832,4.832A4.837,4.837,0,0,0,9289.85,4426.846Zm0,8.264a3.431,3.431,0,1,1,3.433-3.432A3.436,3.436,0,0,1,9289.85,4435.109Z" transform="translate(-9280.887 -4422.714)" fill="#fff"/><ellipse cx="0.7" cy="0.7" rx="0.7" ry="0.7" transform="translate(13.165 3.361)" fill="#fff"/></svg>