<svg xmlns="http://www.w3.org/2000/svg" width="259.881" height="137.99" viewBox="0 0 259.881 137.99"><g transform="translate(-91.026 -35)"><g transform="translate(91.026 35)"><g transform="translate(56.302 110.424)"><path d="M2012.683,212.746c.81.106,1.618.263,2.432.308,1.473.082,2.951.089,4.425.147,1.274.049,2.547.116,3.82.191a3.654,3.654,0,0,1,1.309.188,1.148,1.148,0,0,1,.5.848,11.155,11.155,0,0,1-.212,1.436,1.015,1.015,0,0,0,1.124,1.1c1.443-.016,2.89-.079,4.327.005a5.21,5.21,0,0,1,1.78.622c.7.329,1.361.762,2.06,1.106,1.06.522,1.148,1.586,1.335,2.519a3,3,0,0,1-1.2,2.607,14.419,14.419,0,0,1-2.506,2.327c-1.271.8-2.586,1.607-4.305,1.139a15.229,15.229,0,0,0-3.385-.255c-.723-.027-1.575.28-2.148-.006-1.142-.571-2.329-.253-3.474-.492a19.279,19.279,0,0,0-3.047-.135c-.938-.042-1.874-.116-2.811-.161-1.54-.074-3.081-.137-4.621-.2-1.311-.055-2.621-.117-3.932-.151-.775-.02-1.552.029-2.328.008-.615-.017-1.228-.119-1.844-.139a12.213,12.213,0,0,0-2.445.137,2.239,2.239,0,0,0,.681.284c.7.04,1.411-.011,2.115.029q2.315.134,4.627.328c1.576.132,3.148.309,4.723.446,1.463.126,2.93.2,4.391.345,1.283.13,2.554.362,3.835.5,1.174.126,2.359.159,3.533.282,1.422.149,2.838.35,4.258.528l.05.282a2.451,2.451,0,0,1-.636.42,14.527,14.527,0,0,0-3.012.794c-1.182.629-2.457.429-3.661.759a9.433,9.433,0,0,1-2.781.144c-1.914-.069-3.827-.206-5.74-.316-1.842-.106-3.684-.205-5.525-.323-1.087-.07-2.17-.191-3.257-.254-1.448-.084-2.9-.132-4.346-.2-2.089-.1-4.178-.194-6.267-.314-1.251-.071-2.5-.186-3.689-.278-.119-.787-.211-1.4-.265-1.752-.884-.087-1.5-.187-2.111-.2-.669-.012-1.338.075-2.007.089-1.1.022-2.2.013-3.306.032-.287,0-.574.1-.858.089-1.269-.053-2.536-.163-3.8-.192-2.616-.06-5.234-.056-7.85-.128-2.179-.06-4.357-.181-6.535-.292-2.426-.124-4.853-.239-7.276-.409-2.669-.187-5.333-.463-8-.639-1.794-.118-3.6-.112-5.393-.19-1.826-.079-3.649-.211-5.475-.289-1.585-.068-3.172-.114-4.759-.129-2.013-.019-4.026.012-6.038.005-1.764-.006-3.528-.084-5.29-.038-1.741.045-3.48.192-5.218.316-1.154.082-2.309.177-3.456.321-.22.027-.408.308-.611.472.234.169.454.451.7.482.452.055.994.257,1.324-.327.044-.079.258-.087.392-.084,3.3.069,6.592.192,9.888.209,6.861.036,13.722-.01,20.583.044a35.151,35.151,0,0,1,3.956.5c.449.055.9.056,1.356.088.867.061,1.733.16,2.6.181.839.02,1.679-.066,2.518-.05a2.114,2.114,0,0,1,.717.313c-.161.212-.3.586-.487.608-.741.087-1.494.066-2.242.08-.261,0-.523,0-.784-.014-.568-.035-1.1.308-1.734-.1a1.329,1.329,0,0,0-1.538.143c-.2.18-.76-.03-1.154-.078-.971-.116-1.939-.275-2.914-.348-.421-.031-.858.176-1.282.155-.832-.041-1.661-.246-2.488-.235-1.053.014-2.1.186-3.155.268-.47.037-.945.029-1.417.02-1.976-.04-3.932-.411-5.932.129-.87.235-1.906-.188-2.871-.247-.839-.051-1.683-.016-2.526-.007-.192,0-.434.138-.567.061-1.135-.654-2.364-.087-3.536-.286-.428-.073-.922.306-1.368.267-1.978-.174-3.948-.424-5.921-.647-.08-.009-.187-.073-.232-.042-1.073.76-2.3.1-3.459.368a13.8,13.8,0,0,1-3.346-.116c-.486-.014-.975.12-1.462.116-1.088-.009-2.176-.087-3.264-.091-1.366-.005-2.732.034-4.1.057-3.508.059-7.016.1-10.523.189a38.9,38.9,0,0,1-4.9.217c-1.753-.181-3.473.047-5.207,0-1.713-.05-3.43-.06-5.143-.005-3.558.115-7.113.349-10.671.4a28.328,28.328,0,0,1-4.116-.5,45.209,45.209,0,0,0-8.612-.471c-1.443.083-2.9-.031-4.345-.025-.733,0-1.469.052-2.2.125-.434.043-.563-.08-.631-.526a14.688,14.688,0,0,0-.557-2.327c-.642-1.983-.3-2.986,1.687-3.726a14.293,14.293,0,0,1,4.861-.544c1.253-.021,1.511-.178,1.3-1.4-.043-.25-.466-.555-.762-.621-1.353-.3-2.745-.443-4.081-.8a18.513,18.513,0,0,1-6.02-2.294,10.062,10.062,0,0,1-2.456-2.069,2.431,2.431,0,0,1,.329-3.134,10.823,10.823,0,0,1,5.63-2.819,71.156,71.156,0,0,1,7.57-1.423c2.6-.34,5.242-.426,7.863-.635,1.18-.095,2.355-.256,3.536-.321,1.49-.082,2.984-.081,4.476-.142,1.664-.068,3.326-.212,4.991-.237,2.224-.034,4.45.039,6.675.021,2.4-.019,4.8-.088,7.2-.139,2.669-.056,5.338-.093,8.005-.182q3.616-.12,7.229-.339c1.259-.074,2.511-.275,3.769-.346.7-.04,1.413.117,2.118.1,2.911-.055,5.822-.139,8.733-.218,1.687-.046,3.374-.138,5.061-.146,1.582-.008,3.165.088,4.747.1,2.046.015,4.092-.03,6.138,0,.638.008,1.271.222,1.91.245,2.166.079,4.336.067,6.5.181,1.748.092,3.487.339,5.234.476,1.577.125,3.16.177,4.738.295,2.368.178,4.731.41,7.1.571,1.54.1,3.088.094,4.628.188,2.464.151,4.923.375,7.388.511,1.318.073,2.644-.009,3.962.047.91.039,1.813.224,2.722.288,1.013.072,2.03.078,3.045.12,1.5.062,2.993.113,4.488.2,1.186.069,2.367.192,3.552.281,1.694.127,3.39.243,5.085.366,1.9.139,3.8.238,5.7.434,1.523.158,3.03.465,4.55.652.9.11,1.819.1,2.727.175.779.064,1.554.226,2.333.249,1.448.044,2.9.016,4.348.021,2.06.007,4.12.042,6.178.013,1.115-.016,2.229-.207,3.343-.2,1.323,0,2.645.126,3.967.2a3.221,3.221,0,0,0,.491.066,7.223,7.223,0,0,1,4.033,1.046,2.839,2.839,0,0,1,1.192,1.368c.362.856.032,1.238-.931,1.239-1.482,0-2.963-.062-4.446-.061-1.146,0-2.295.111-3.44.079-1.251-.035-2.5-.181-3.748-.271a2.945,2.945,0,0,0-.468.039Zm-96.6,5.425c.477-.147.738-.216.99-.308,1.676-.615,3.385-1.156,5.012-1.88,1.375-.611,1.407-1.815.087-2.507a12.238,12.238,0,0,0-6.723-1.393,1.737,1.737,0,0,0-1.788,2.036c.016.944.079,1.887.136,2.829.031.519-.066.886-.651,1.081-.539.181-.751.577-.094.928.508.272.523.646.4,1.13a6.215,6.215,0,0,0-.285,1.633c.005.227.406.523.686.629.129.049.5-.245.59-.457.26-.634.432-1.3.657-2.017.334.121.566.2.794.289,2.288.888,4.572,1.785,6.866,2.656a2.154,2.154,0,0,0,.758-.007,3.727,3.727,0,0,0-.249-.911c-.091-.162-.373-.221-.573-.318-1.784-.866-3.574-1.723-5.353-2.6A14.538,14.538,0,0,1,1916.086,218.171Zm68.9.123c-.044.428-.119.868-.131,1.311a2.206,2.206,0,0,0,1.676,2.476,6.684,6.684,0,0,0,2.4,0,13.369,13.369,0,0,0,5.754-3.1,3.778,3.778,0,0,0,.9-4.437,4.017,4.017,0,0,0-4.35-2.054c-.927.279-1.837.611-2.594.865.018-.216.044-.533.07-.85a3.823,3.823,0,0,0-1.048.229,2.224,2.224,0,0,0-.684.724c-.842,1.209-1.681,2.422-2.481,3.658a1.688,1.688,0,0,0-.206.94C1984.3,218.139,1984.728,218.208,1984.99,218.294Zm-106.6.273c0,1.165-.014,2.262.011,3.358a2.478,2.478,0,0,0,.236.7c.273-.108.634-.145.8-.344a3.08,3.08,0,0,0,.4-.993c.356-1.092.207-2.313.849-3.336a.336.336,0,0,0-.019-.309,3.062,3.062,0,0,1-.375-2.26c.079-1.2-.188-1.793-1.334-2.2-.221-.079-.428-.192-.648-.292.212-.391.378-.7.611-1.126-.386-.061-.687-.208-.891-.123a10.588,10.588,0,0,0-1.763.923c-.47.31-1.137.128-1.32,1.165-.214,1.208-1.2,2.283-1.873,3.4a2.149,2.149,0,0,1-1.4,1.2,1.188,1.188,0,0,0-.646.836c-.055.3.206.65.372,1.1-.229.543-.562,1.225-.794,1.939-.083.256.076.59.124.889a4.008,4.008,0,0,0,1-.253c.191-.1.285-.4.4-.622.375-.714.7-1.46,1.127-2.139a1.573,1.573,0,0,1,.882-.62C1875.544,219.127,1876.968,218.86,1878.392,218.566Zm91.3,2.248c.171-.84-.424-1.747.387-2.166a10.766,10.766,0,0,1,3.032-.854,12.5,12.5,0,0,1,2.167-.024c-.341,1.526-.693,2.984-.975,4.454a2.925,2.925,0,0,0,.2,1.034,4.581,4.581,0,0,0,.908-.607,2.63,2.63,0,0,0,.377-.833q.559-1.4,1.112-2.8a24.562,24.562,0,0,0,1.686-6.251.825.825,0,0,0-.3-.679c-.407-.219-2.215.975-2.036,1.322.413.8-.045,1.458-.163,2.156-.211,1.246-.511,1.407-1.823,1.364-.948-.031-1.9-.021-2.846.009-.485.016-.968.114-1.527.185.339-1.321.65-2.5.943-3.693.082-.332.244-.913.141-.971a2.173,2.173,0,0,0-1.156-.221c-.815.055-1.085.622-1.182,1.368a15.362,15.362,0,0,1-.549,3.1c-.349,1-1.1,1.875-.2,2.949.112.134.013.436.032.659.03.361.074.722.116,1.082.082.7.51.911,1.127.716a3.533,3.533,0,0,0,1.765-1.528l-.14-.179Zm-111.429-.536c1.689-.449,3.179-.815,4.649-1.249a7.732,7.732,0,0,0,1.59-.741,2.561,2.561,0,0,0,.228-4,10.054,10.054,0,0,0-5.537-2.748,2.31,2.31,0,0,0-2.357,1.336,3.389,3.389,0,0,1,.752.567,1.217,1.217,0,0,1,.294.848c-.28,1.388-.683,2.753-.934,4.145-.135.751-.161,1.471-1.42,1.573a8.746,8.746,0,0,0,.84.463c.406.152.478.381.309.781-.246.583-.437,1.27.195,1.673.707.45,1.175-.179,1.632-.623a1.609,1.609,0,0,0,.183-.262l-.221,0Zm145.856.1c2-.642,3.852-1.146,5.633-1.836a2.494,2.494,0,0,0,.786-4.277,10.7,10.7,0,0,0-5.285-2.722c-1.141-.268-1.826.345-2.563,1.054a2.432,2.432,0,0,0,.408.487c.739.492.693,1.1.465,1.877a25.221,25.221,0,0,0-.862,3.905c-.073.574-.189.862-.73.984-.113.025-.2.146-.367.27a2.169,2.169,0,0,0,.465.3c.483.138.6.392.427.876-.208.58-.416,1.272.253,1.652s1.126-.216,1.575-.623a1.375,1.375,0,0,0,.187-.274l-.207.011C2004.238,221.454,2004.17,220.837,2004.121,220.382Zm-71.479,1.707a6.138,6.138,0,0,1,.42-1.744,33.692,33.692,0,0,1,2.458-3.354,9.439,9.439,0,0,0,2.493-4.171c.052-.27-.163-.593-.255-.891-.27.1-.626.13-.8.321q-1.31,1.466-2.536,3.007c-.621.781-1.184,1.61-1.847,2.519-.218-.305-.454-.5-.5-.73a32.979,32.979,0,0,1-.659-3.652c-.091-.95-.358-1.27-1.291-1.053-.136.032-.273.057-.411.078-.994.151-1.159.357-.943,1.314.464,2.056,1.085,4.039,2.763,5.4l-1.511,3.05A2.552,2.552,0,0,0,1932.642,222.088Zm-40.443-2.359c-.382.741-.819.751-1.405.825a14.777,14.777,0,0,0-3.115.949c-.241.087-.4.4-.6.612a2.844,2.844,0,0,0,.633.481,3.8,3.8,0,0,0,2.841-.354c1.463-.579,2.812-1.475,4.464-1.481.029,0,.056-.077.109-.154-.295-.366-.61-.73-.894-1.118a7.809,7.809,0,0,0-.926-1.323c-.752-.665-1.62-1.2-2.4-1.833-1.26-1.033-1.167-1.649.31-2.356.149.7.669.494,1.046.352.783-.294,1.525-.7,2.3-1.017.572-.238.965-.662.669-1.208a1.3,1.3,0,0,0-1.187-.36c-1.636.536-3.257,1.136-4.831,1.832a3.823,3.823,0,0,0-1.316,1.249,1.289,1.289,0,0,0,.142,1.827,19.587,19.587,0,0,0,1.8,1.348Zm65.314-5.8v.267c.319.058.687.246.95.149.94-.349,1.85-.785,2.758-1.214a.848.848,0,0,0,.371-.423c.294-.709-.171-1.188-1.07-1.015a14.1,14.1,0,0,0-5.205,2,4.49,4.49,0,0,0-1.055,1.063,1.4,1.4,0,0,0,.311,2.068c.666.5,1.372.947,2.041,1.443s1.293,1.014,1.972,1.549l-.8.846c-.249-.059-.5-.2-.687-.149-1.021.287-2.036.6-3.033.957-.254.092-.436.384-.651.583.249.19.508.555.745.541a10.524,10.524,0,0,0,2.758-.387c1.456-.5,2.752-1.475,4.39-1.427.044,0,.089-.052.25-.152-.25-.234-.483-.439-.7-.659-.122-.125-.309-.273-.312-.414-.018-.748-.513-1.128-1.044-1.52-.879-.647-1.77-1.283-2.587-2s-.763-1.162.113-1.8C1957.181,214.129,1957.351,214.036,1957.513,213.934Zm-54.266-.625c-.5,3.084-1.367,5.954-.651,8.969.575.055,1.263.051,1.261-.649a20.943,20.943,0,0,1,1.049-5.375c.25-.957,1.087-2-.129-3.044h2.763c.068-1.286.068-1.332-1.1-1.349-1.7-.025-3.4-.017-5.094.057-1.415.061-1.626.315-1.977,2Zm47.652,9.912c1.612.592,19.869,1.5,20.635.837C1964.572,223.487,1957.74,223.417,1950.9,223.221Zm24.785,1.427q-.01-.193-.02-.385H1971.9c.068.076.172.3.31.323a7.12,7.12,0,0,0,1.157.061C1974.141,224.652,1974.912,224.648,1975.684,224.648Zm-25.772-1.208-.023-.2h-3.074l.009.2Zm60.372-10.984.043.145h1.869l-.013-.145Z" transform="translate(-1832.048 -203.497)" fill="#fff"/><path d="M2120.966,261.153c-.314.23-.53.5-.668.463a.812.812,0,0,1-.491-.505c-.03-.109.29-.449.438-.441C2120.451,260.681,2120.644,260.922,2120.966,261.153Z" transform="translate(-1998.912 -236.65)" fill="#fff"/><path d="M2029.887,231.047c.175-.548.384-1.089.513-1.648.072-.315.142-.789-.024-.957s-.635-.1-.971-.114a.955.955,0,0,0-.307.1l-.192-.152c.175-.224.307-.561.534-.645a2.5,2.5,0,0,1,1.226-.15c1.152.189,2.3.426,3.427.72.333.087.6.429.9.655-.268.259-.491.624-.812.76-1.353.573-2.736,1.078-4.108,1.608Z" transform="translate(-1946.203 -217.391)" fill="#fff"/><path d="M2200.74,233.2a14.565,14.565,0,0,1,.455-2.368,3.421,3.421,0,0,1,1.086-1.584,4.416,4.416,0,0,1,3.5-.748,2.53,2.53,0,0,1,1.714,3.47,6.049,6.049,0,0,1-4.491,3.408C2201.46,235.671,2200.786,234.972,2200.74,233.2Z" transform="translate(-2045.845 -217.941)" fill="#fff"/><path d="M1932.935,233.38c.691-1.036,1.216-1.885,1.811-2.682.225-.3.708-.744.9-.671a2.455,2.455,0,0,1,1.151.975,2.99,2.99,0,0,1,.148,1.3c.03.616-.264.868-.9.88C1935.065,233.2,1934.084,233.3,1932.935,233.38Z" transform="translate(-1890.551 -218.876)" fill="#fff"/><path d="M1896.029,226.436c1.705.668,3.184,1.285,4,2.816a1.237,1.237,0,0,1-.6,1.943c-1.206.541-2.465.962-3.7,1.435l-.237-.223c.274-.932.542-1.865.824-2.794a4.642,4.642,0,0,1,.245-.531C1897.2,227.663,1897.2,227.663,1896.029,226.436Z" transform="translate(-1868.839 -216.799)" fill="#fff"/><path d="M2242.511,232.329c.359-1.07.664-2.161,1.09-3.2.606-1.485.644-1.47-.509-2.709,1.684.681,3.178,1.28,3.995,2.813a1.253,1.253,0,0,1-.667,1.986c-1.2.53-2.459.947-3.692,1.413Z" transform="translate(-2070.068 -216.788)" fill="#fff"/></g><g transform="translate(0 0)"><path d="M1713.117-19.213c-.2.047-.274.041-.307.074-1.279,1.24-2.81,4.063-2.086,6.213,1.518,4.51,3.036,9.021,4.479,13.556.981,3.085,1.832,6.212,2.747,9.319.134.456.329.9.443,1.356.316,1.269.554,2.559.917,3.814.353,1.22,1.228,1.417,2.186.55.288-.261.511-.592.783-.872.537-.552,1.1-1.075,1.626-1.64a5.813,5.813,0,0,0,.794-1.073q3.3-5.852,6.57-11.72,1.78-3.19,3.529-6.4a1.526,1.526,0,0,0,.285-.938c-.309-1.109.309-1.932.7-2.847.351-.81.591-1.668.869-2.508.253-.765.493-1.536.737-2.3.292-.921.509-1.874.886-2.758.788-1.846,1.593-3.689,2.515-5.47,1.107-2.136,2.363-4.194,3.517-6.307a3.276,3.276,0,0,1,2.776-1.454c.327-.047.861.483,1.107.871,1.534,2.42,3.053,4.852,4.491,7.33a19.706,19.706,0,0,1,1.337,3.15c.06.163-.22.6-.433.684a12.324,12.324,0,0,1-2.24.7,9.653,9.653,0,0,0-5.3,3.338,45.178,45.178,0,0,0-3.934,4.772c-1.84,2.7-3.519,5.511-5.209,8.31-2.066,3.423-4.046,6.9-6.111,10.321-1.849,3.066-3.766,6.092-5.643,9.142a1.2,1.2,0,0,0,.545,1.925c3.28,1.433,6.548,2.9,9.885,4.191,2.358.913,4.822,1.551,7.232,2.334.53.172,1.016.476,1.543.66,1.844.643,3.684,1.3,5.549,1.879,2.929.91,5.862,1.817,8.822,2.617,1.934.523,3.936.788,5.877,1.287a91.658,91.658,0,0,0,12.47,1.958c3.4.389,6.832.524,10.252.749,2.552.168,5.106.36,7.662.431,2.193.061,4.391-.031,6.587-.06,1.422-.019,2.846-.013,4.266-.079,2.032-.095,4.064-.21,6.091-.381q3.619-.3,7.228-.723c2.327-.268,4.645-.616,6.97-.9,5.681-.7,10.967-2.845,16.386-4.494a24.258,24.258,0,0,0,5.76-2.222c2.521-1.564,5.51-2,7.953-3.671a16.873,16.873,0,0,1,1.625-.661,9.089,9.089,0,0,0,1.876-1.211,1.914,1.914,0,0,0,.482-2.216c-.892-2.564-1.775-5.135-2.524-7.743-.407-1.418-.889-2.9-.252-4.409a.916.916,0,0,0,.019-.492c-.19-1.037-.356-2.082-.6-3.106-.406-1.677-.832-3.35-1.319-5a1.568,1.568,0,0,1,.989-2.215,5.524,5.524,0,0,1,3.523-.16,31.858,31.858,0,0,0,4.138.528c.625.056,1.284-.157,1.891-.048a1.838,1.838,0,0,1,.985,2.848,20.867,20.867,0,0,1-2.552,2.263,5,5,0,0,0-1.767,3.588c-.243,2.1-.379,4.227-.415,6.344-.044,2.581,1.031,4.894,2.011,7.212a.59.59,0,0,0,.519.245,7.969,7.969,0,0,0,1.7-.677q2.79-1.659,5.525-3.409c.867-.555,1.674-1.206,2.507-1.815,2.063-1.51,4.193-2.937,6.169-4.553,2.213-1.81,4.352-3.724,6.393-5.725a32.288,32.288,0,0,0,2.77-3.574,2.244,2.244,0,0,0,.3-2.365,17.9,17.9,0,0,1-.726-2.235c-.627-2.48-1.19-4.978-1.842-7.452-.327-1.242-.8-2.448-1.2-3.671q-2.326-7.06-4.648-14.121c-.652-1.989-.832-2.119-2.451-.889a14.782,14.782,0,0,1-6.906,2.847c-4.3.628-8.883-2.341-10.33-6.695-.94-2.829-2.133-5.572-3.156-8.375-.418-1.143-1.375-1.546-2.33-2.011a2.28,2.28,0,0,1-.9-3.277,2.267,2.267,0,0,1,1.01-.689c2.226-.757,4.465-1.474,6.705-2.191a3.178,3.178,0,0,1,.981-.175c1.035.01,1.492.706,1.058,1.635a4.917,4.917,0,0,1-.818,1.256,5.066,5.066,0,0,0-1.114,5.16c.857,2.9,1.846,5.759,2.874,8.6a4.354,4.354,0,0,0,3.738,2.9,8.709,8.709,0,0,0,5.2-.9,7.974,7.974,0,0,0,2.623-2.375c1.641-2.085,1.517-4.5.833-6.877-.665-2.313-1.526-4.568-2.22-6.874a2.955,2.955,0,0,0-1.923-2.137,5.965,5.965,0,0,1-1.383-.777,1.591,1.591,0,0,1-.241-2.678,2.977,2.977,0,0,1,1.014-.71c3.39-1.223,6.79-2.414,10.19-3.609.572-.2,1.162-.352,1.606.242a1.488,1.488,0,0,1-.024,1.87c-.435.647-.874,1.293-1.264,1.967a6.7,6.7,0,0,0-.872,1.8,30.692,30.692,0,0,0-.545,3.763,20.218,20.218,0,0,0,1.279,7.932c.661,2.113,1.022,4.32,1.516,6.485.031.136.06.274.1.408a79.265,79.265,0,0,1,2.146,7.648c.594,3.278,1.949,6.292,2.8,9.469.826,3.066,1.6,6.146,2.4,9.218.128.486.291.965.458,1.44.276.784.667.9,1.29.3.749-.713,1.474-1.457,2.158-2.232,1.1-1.247,2.219-2.487,3.218-3.815.769-1.022,1.357-2.177,2.036-3.266a13.583,13.583,0,0,1,2.947-3.794,5.871,5.871,0,0,0,1.19-1.806c1.934-3.44,3.867-6.881,5.756-10.345a5.664,5.664,0,0,0,.36-1.585c.027-.135-.027-.291.016-.418.742-2.238.819-4.693,2.216-6.72.439-.637.924-1.184,1.751-1.07a2.155,2.155,0,0,1,1.8,1.435,29.932,29.932,0,0,0,1.5,2.879c.815,1.488,1.645,2.969,2.473,4.45a8.719,8.719,0,0,0,.523.852,2.953,2.953,0,0,1,.335,2.874c-.237.672-1.125.976-2.172.876a5.019,5.019,0,0,0-2.147,0,5.869,5.869,0,0,0-2.456,1.6c-2.025,2.555-3.875,5.248-5.832,7.858-1.064,1.419-2.253,2.746-3.309,4.171-1.6,2.154-3.116,4.364-4.691,6.535-.423.584-.931,1.106-1.394,1.662-1.636,1.97-3.286,3.93-4.887,5.929a1.31,1.31,0,0,0-.182,1.065c.953,2.79.994,5.768,1.781,8.571a21.55,21.55,0,0,1,.378,4.522,18.579,18.579,0,0,1-2.114,9.662c-1.73,3.545-4.573,5.884-7.623,8.047a17.043,17.043,0,0,1-7.337,2.645,18.373,18.373,0,0,1-11.935-2.268,37.509,37.509,0,0,1-6.118-4.758c-.674-.577-1.219-.921-2.066-.558-1.843.792-3.694,1.567-5.534,2.365-1.073.465-2.117,1-3.2,1.434-7.182,2.853-14.593,5.015-21.992,7.205a44.536,44.536,0,0,1-5.343.925c-1.373.229-2.741.494-4.12.673-2.036.266-4.081.47-6.122.7-.33.037-.657.1-.988.131-.712.071-1.425.128-2.137.2-1.44.137-2.879.293-4.32.412s-2.887.272-4.331.281c-1.612.01-3.224-.175-4.836-.186-2.146-.015-4.3.175-6.437.063-3.527-.186-7.045-.539-10.567-.831-2.411-.2-4.841-.285-7.227-.652-4.018-.617-8.02-1.361-12.007-2.16-2.673-.535-5.34-1.148-7.952-1.921-3.507-1.039-6.922-2.394-10.442-3.376-3.614-1.009-6.877-2.808-10.322-4.188-3.087-1.236-6.1-2.649-9.151-3.978a4.115,4.115,0,0,0-.947-.328.786.786,0,0,0-.944,1.1c1.354,4.064,2.8,8.1,4.032,12.2a46.219,46.219,0,0,1,.937,5.5c.563,3.276-.469,6.3-1.392,9.358a14.031,14.031,0,0,1-3.379,6,11.779,11.779,0,0,1-4.636,2.736c-3.649,1.279-6.717.218-9.554-2.07-.065-.053-.159-.1-.183-.168-.7-2.016-1.407-4.03-2.073-6.057-.063-.194.088-.493.205-.707.983-1.792,2-3.567,2.97-5.364a3.086,3.086,0,0,1,2.007-1.644c1.34-.352,2.6-1.019,4.073-.752a5.152,5.152,0,0,1,4.182,3.326c.205.521.338,1.072.565,1.581a3.547,3.547,0,0,1-.325,3.532,6.473,6.473,0,0,1-5.213,2.924,1.978,1.978,0,0,1-1.912-.983,1.043,1.043,0,0,0-1.512-.44,1.25,1.25,0,0,0-.337,1.838,4.649,4.649,0,0,0,4.079,1.525,6.848,6.848,0,0,0,6.146-4.833,8.834,8.834,0,0,0,.8-4.485,7.887,7.887,0,0,0-.27-1.212q-2.685-8.395-5.393-16.781c-.266-.822-.636-1.611-.954-2.417a1.9,1.9,0,0,0-1.964-1.245,62.067,62.067,0,0,1-8.09-.3c-3.781-.566-6.37-2.519-7.14-6.406a3.884,3.884,0,0,1,.239-2.124,13.246,13.246,0,0,1,1.869-3.432,4.249,4.249,0,0,1,2.37-1.079,12.138,12.138,0,0,1,6.9.759c.892.358,1.274.112,1.322-.833a3.266,3.266,0,0,0-.15-1.15c-1.029-3.169-2.162-6.305-3.1-9.5q-1.439-4.891-2.555-9.875a6.4,6.4,0,0,1,.335-4.353c.352-.717.167-1.7.521-2.414,1.016-2.047,2.165-4.028,3.3-6.016a6.806,6.806,0,0,1,4.683-3.081c1.646-.408,3.2-1.249,4.964-1.073a6.575,6.575,0,0,1,1.471.282,6.172,6.172,0,0,1,4.562,5.539c.133,1.775,0,3.737-1.6,5.082a3.985,3.985,0,0,1-1.118.706c-.969.362-1.958.675-2.954.96A4.589,4.589,0,0,1,1714-15.415c-.3-1.006-.421-2.061-.637-3.091A6.118,6.118,0,0,0,1713.117-19.213Zm181.52,30.588c-.464-1.956-1-4.334-1.618-6.692-.075-.285-.545-.522-.882-.655-.127-.05-.429.229-.594.409-1.111,1.214-2.128,2.525-3.325,3.645-1.712,1.6-3.521,3.106-5.349,4.577-1.3,1.047-2.682,2-4.065,2.936-1.268.859-2.586,1.646-3.885,2.46-1.982,1.242-3.986,2.45-5.938,3.737a11.165,11.165,0,0,0-1.848,1.673.8.8,0,0,0-.055.772,27.848,27.848,0,0,0,4.3,3.816,16.116,16.116,0,0,0,9.688,1.988,9.9,9.9,0,0,0,6.589-2.717c1.7-1.692,3.271-3.511,4.892-5.28a1.544,1.544,0,0,0,.249-.435C1894.144,18.492,1894.28,15.161,1894.637,11.375Zm-184.582,9.38a2.667,2.667,0,0,0,.962-.021,6.178,6.178,0,0,0,1.051-.739c-.233-.286-.411-.666-.709-.841a24.53,24.53,0,0,0-2.611-1.331,15.1,15.1,0,0,0-2.369-.809c-.534-.132-1.169-.161-1.467.475-.292.621.083,1.079.537,1.445A7.108,7.108,0,0,0,1710.056,20.755Z" transform="translate(-1698.033 59.343)" fill="#fff"/><path d="M1921.345,37.7c-.115-3.532,1.5-6.941,4.217-9.89a10.693,10.693,0,0,1,4.83-3.229,17.192,17.192,0,0,1,3.279-.6c1.418-.124,1.706-.411,1.52-1.808a6.473,6.473,0,0,0-4.141-5.554,3.109,3.109,0,0,0-3.825,1.2c-.579.954-1.007,2-1.557,2.972a20.481,20.481,0,0,1-1.377,2.1,2.121,2.121,0,0,1-2.112.76c-.776-.107-.912-.836-1.061-1.459-.455-1.9-.913-3.8-1.314-5.716a2.832,2.832,0,0,1,2.174-3.29c3.036-.734,6.066-1.49,9.106-2.209a7.263,7.263,0,0,1,4.364.3,5.145,5.145,0,0,1,2.891,3.288c.777,2.175,1.281,4.447,1.89,6.682.454,1.67.9,3.342,1.331,5.019.517,2.027.982,4.067,1.521,6.088q.55,2.064,1.249,4.088a1.443,1.443,0,0,0,2.49.224c.172-.219.285-.482.451-.706a1.208,1.208,0,0,1,2.134-.031,4.1,4.1,0,0,1,.791,1.725c.358,2.768.55,5.558.933,8.322a2.818,2.818,0,0,1-3.675,2.937,33.882,33.882,0,0,1-3.162-1.333c-1.009-.464-1.457-.376-2.1.541-.688.986-1.321,2.014-2.062,2.959a7.324,7.324,0,0,1-5.718,2.762,9.7,9.7,0,0,1-4.289-1.224,15.6,15.6,0,0,1-6.482-6.288A18.345,18.345,0,0,1,1921.345,37.7Zm13.274,6.877a4.542,4.542,0,0,0,3.355-1.683,2.883,2.883,0,0,0,.891-2.667c-.209-1.353-.32-2.726-.6-4.064-.446-2.157-.931-4.311-1.522-6.432a2.291,2.291,0,0,0-2.44-1.643c-3.77-.008-6.259,2.521-7.34,5.517a7.621,7.621,0,0,0,1.609,7.9A8.664,8.664,0,0,0,1934.62,44.58Z" transform="translate(-1826.6 18.679)" fill="#fff"/><path d="M1855.634,48.859a10.067,10.067,0,0,0,5.935-2.866,16.54,16.54,0,0,0,3.59-5.408,1.916,1.916,0,0,0,.174-1.04,7.044,7.044,0,0,1,1.258-5.558,1.883,1.883,0,0,1,1.4-.678c.375.029.845.575,1.032,1,1.061,2.4,1.3,5.009,1.737,7.562.233,1.348.5,2.693.665,4.05a3.107,3.107,0,0,1-2.409,3.156c-2.8.892-5.624,1.715-8.4,2.687-1.65.579-3.218,1.388-4.824,2.089-.841.367-1.7.7-2.525,1.1a2.479,2.479,0,0,0-.913.723c-1.143,1.584-2.94,1.76-4.609,2.061a1.722,1.722,0,0,1-1.907-2.422c.723-1.692.814-3.5,1.353-5.216a1.838,1.838,0,0,0-.053-1.047c-1.138-3.486-2.375-6.941-3.431-10.45-.631-2.1-.963-4.284-1.486-6.416-.259-1.057-.633-2.088-.979-3.123-1.669-4.99-3.407-9.958-4.993-14.974-.684-2.166-.992-4.448-1.6-6.642a47.85,47.85,0,0,0-1.871-5.473c-.222-.536-.945-.9-1.494-1.255a10.031,10.031,0,0,0-1.381-.607,2.02,2.02,0,0,1-1.279-2.057,1.96,1.96,0,0,1,1.419-1.706c1.107-.395,2.259-.668,3.35-1.1,1.315-.52,2.571-1.186,3.88-1.721a16.874,16.874,0,0,1,3.391-1.165,2.033,2.033,0,0,1,2.175,2.941c-1.378,2.49-1.249,5.131-1.049,7.765.168,2.211.65,4.4.96,6.6.152,1.076.18,2.17.354,3.242.182,1.122.47,2.226.717,3.337.042.191.18.386.154.562-.343,2.377.946,4.381,1.46,6.562.395,1.673.616,3.388,1.012,5.061.412,1.738.956,3.445,1.418,5.171.642,2.4,1.441,4.772,1.838,7.211a43.653,43.653,0,0,0,1.739,6.021C1851.859,48.146,1853.369,48.9,1855.634,48.859Z" transform="translate(-1773.757 29.38)" fill="#fff"/><path d="M2034.969,8.569c.1-2.111,1.505-2.935,3.371-1.968,1.117.579,2.234,1.172,3.394,1.655a7.994,7.994,0,0,0,6.628-.226c2.539-1.119,3.511-3.3,4.533-5.546a.946.946,0,0,0,.071-.572c-.624-2.527-1.489-4.9-4.167-5.994-1.914-.784-3.808-1.624-5.761-2.293a11.222,11.222,0,0,0-2.971-.418,18.353,18.353,0,0,1-8.471-2.919,7.427,7.427,0,0,1-3.461-4.471,7.2,7.2,0,0,1,.532-5.128,8.011,8.011,0,0,1,5.058-4.315c2.739-.86,5.411-1.932,8.122-2.886,1.15-.4,1.7-.084,2.084,1.082.468,1.437.937,2.874,1.437,4.3a4.181,4.181,0,0,0,.591,1.092,1.436,1.436,0,0,1,.012,1.923c-.515.65-1.149.451-1.739.128a12.136,12.136,0,0,0-5.431-1.847,8.071,8.071,0,0,0-5.055,1.491c-2.009,1.485-1.7,3.891.727,5.235a18.136,18.136,0,0,0,4.5,1.482c3.221.786,6.493,1.371,9.7,2.218a11.741,11.741,0,0,1,6.861,5.046,12.667,12.667,0,0,1,1.8,5.063,13.264,13.264,0,0,1-.183,3.422c-.166,2.422-1.5,4.222-2.824,6.043-1.02,1.406-2.674,1.94-4.117,2.767-2.232,1.278-4.931,1.487-7,3.106-.5.392-.976.817-1.454,1.238a10.877,10.877,0,0,1-1.111,1,1.63,1.63,0,0,1-2.689-.972c-.524-1.678-.958-3.384-1.512-5.051-.253-.761-.733-1.443-1.048-2.188A12,12,0,0,1,2034.969,8.569Z" transform="translate(-1889.311 40.401)" fill="#fff"/><path d="M1994.089-6.616c.168.757.36,1.509.5,2.272a13.161,13.161,0,0,1,.291,2.224,1.406,1.406,0,0,1-2.145,1.338,26.034,26.034,0,0,1-2.327-1.33,7.041,7.041,0,0,0-6.834-.176,2.743,2.743,0,0,0-.964,4.087,5.168,5.168,0,0,0,1.448,1.365,23,23,0,0,0,7.281,2.7c.926.184,1.825.505,2.741.744a15.792,15.792,0,0,1,7.319,4.044,8.907,8.907,0,0,1,2.526,3.783,29.951,29.951,0,0,1,.985,3.715,10.909,10.909,0,0,1-3.322,9.608,12.879,12.879,0,0,1-4.027,2.625c-1.867.866-3.641,1.932-5.46,2.9-.761.405-1.525.81-2.306,1.172a1.843,1.843,0,0,1-2.429-1.048c-.47-1.365-.76-2.791-1.155-4.183-.328-1.156-.633-2.324-1.06-3.443a2.384,2.384,0,0,1,.6-2.545,1.777,1.777,0,0,1,2.1-.349c1.023.374,2.008.849,3.025,1.24,2.579.991,6.47.082,7.915-1.915a20.015,20.015,0,0,0,1.494-2.712,1.086,1.086,0,0,0,.046-.727,29.476,29.476,0,0,0-1.125-3.513,4.385,4.385,0,0,0-1.374-1.712,26,26,0,0,0-7.56-3.526,51.238,51.238,0,0,1-8.687-3.3,6.072,6.072,0,0,1-2.632-2.931,16.341,16.341,0,0,1-1.131-3.333,3.925,3.925,0,0,1,.134-2.11,8.632,8.632,0,0,1,5.652-5.532c2.662-.852,5.29-1.808,7.938-2.707a1.626,1.626,0,0,1,2.322,1.116,18.729,18.729,0,0,1,.454,2.109Z" transform="translate(-1860.23 30.753)" fill="#fff"/><path d="M2173.858-3.434c.285.963-.333,1.629-1.139,2.175a4.292,4.292,0,0,1-4.737.382,2.211,2.211,0,0,1-.918-.923,13.856,13.856,0,0,1-.824-2.375c-.277-1.074.843-3.143,2.034-3.893a3.46,3.46,0,0,1,3.837.42C2173.206-6.832,2173.8-5.442,2173.858-3.434Z" transform="translate(-1969.512 29.845)" fill="#fff"/></g><g transform="translate(79.783 118.41)"><path d="M2027.334,229.968a14.572,14.572,0,0,0,1.262.812c1.778.88,3.568,1.736,5.353,2.6.2.1.482.155.573.318a3.7,3.7,0,0,1,.249.911,2.155,2.155,0,0,1-.759.007c-2.294-.87-4.578-1.767-6.866-2.656-.228-.089-.46-.168-.794-.289-.225.713-.4,1.383-.657,2.017-.087.211-.462.505-.591.457-.281-.105-.681-.4-.686-.628a6.21,6.21,0,0,1,.285-1.633c.122-.484.107-.858-.4-1.13-.656-.351-.444-.747.094-.928.585-.2.682-.563.651-1.081-.057-.942-.12-1.886-.136-2.83a1.737,1.737,0,0,1,1.789-2.036,12.237,12.237,0,0,1,6.723,1.393c1.321.692,1.288,1.9-.087,2.507-1.628.723-3.337,1.264-5.012,1.88C2028.072,229.753,2027.811,229.821,2027.334,229.968Zm-.354-1.018.187.177c1.372-.53,2.755-1.035,4.108-1.608.321-.136.544-.5.812-.76-.3-.226-.566-.568-.9-.655-1.129-.295-2.276-.531-3.427-.72a2.507,2.507,0,0,0-1.227.15c-.227.084-.359.422-.534.645l.192.152a.952.952,0,0,1,.306-.1c.336.013.791-.068.971.114s.1.642.024.957C2027.365,227.862,2027.156,228.4,2026.98,228.951Z" transform="translate(-1966.777 -223.28)" fill="#331405"/><path d="M2195.132,230.544c-.262-.086-.691-.154-.7-.239a1.684,1.684,0,0,1,.206-.94c.8-1.237,1.639-2.449,2.48-3.658a2.231,2.231,0,0,1,.684-.724,3.824,3.824,0,0,1,1.048-.229c-.026.317-.052.634-.07.85.757-.254,1.667-.586,2.594-.865a4.017,4.017,0,0,1,4.35,2.054,3.78,3.78,0,0,1-.9,4.437,13.372,13.372,0,0,1-5.754,3.1,6.687,6.687,0,0,1-2.4,0,2.206,2.206,0,0,1-1.675-2.476C2195.013,231.413,2195.087,230.972,2195.132,230.544Zm1.952.46c.046,1.774.72,2.474,2.261,2.177a6.048,6.048,0,0,0,4.491-3.408,2.53,2.53,0,0,0-1.714-3.47,4.417,4.417,0,0,0-3.5.748,3.42,3.42,0,0,0-1.085,1.584A14.538,14.538,0,0,0,2197.084,231Z" transform="translate(-2065.67 -223.734)" fill="#331405"/><path d="M1931.578,229.771c-1.424.294-2.848.561-4.256.9a1.573,1.573,0,0,0-.882.62c-.43.679-.752,1.425-1.126,2.139-.116.222-.211.52-.4.622a4.012,4.012,0,0,1-1,.253c-.048-.3-.207-.633-.124-.889.232-.714.565-1.4.794-1.939-.167-.449-.427-.8-.372-1.1a1.188,1.188,0,0,1,.646-.836,2.149,2.149,0,0,0,1.4-1.2c.672-1.121,1.658-2.2,1.872-3.4.183-1.037.85-.855,1.32-1.165a10.6,10.6,0,0,1,1.763-.923c.2-.085.505.061.891.123-.233.429-.4.735-.611,1.126.219.1.427.213.648.292,1.146.408,1.413,1,1.334,2.2a3.063,3.063,0,0,0,.375,2.26.335.335,0,0,1,.02.309c-.642,1.023-.493,2.244-.849,3.336a3.073,3.073,0,0,1-.4.993c-.161.2-.523.235-.8.344a2.494,2.494,0,0,1-.236-.7C1931.564,232.033,1931.578,230.936,1931.578,229.771Zm-3.959-.566c1.149-.079,2.129-.183,3.111-.2.633-.012.927-.263.9-.88a2.992,2.992,0,0,0-.148-1.3,2.452,2.452,0,0,0-1.151-.976c-.19-.074-.674.369-.9.671C1928.835,227.32,1928.31,228.169,1927.619,229.2Z" transform="translate(-1908.715 -222.687)" fill="#331405"/><path d="M2156.6,232.635l1.089-.411.14.179a3.532,3.532,0,0,1-1.765,1.528c-.617.195-1.045-.017-1.127-.716-.042-.36-.086-.721-.116-1.082-.018-.223.08-.525-.032-.659-.9-1.074-.145-1.95.2-2.949a15.361,15.361,0,0,0,.549-3.1c.1-.747.366-1.314,1.182-1.368a2.172,2.172,0,0,1,1.156.221c.1.058-.059.639-.141.971-.293,1.188-.6,2.372-.943,3.693.56-.071,1.042-.169,1.527-.185.948-.03,1.9-.041,2.846-.009,1.312.043,1.613-.118,1.823-1.364.117-.7.576-1.357.163-2.156-.179-.347,1.629-1.541,2.035-1.322a.824.824,0,0,1,.3.679,24.572,24.572,0,0,1-1.686,6.251q-.554,1.4-1.113,2.8a2.625,2.625,0,0,1-.377.833,4.576,4.576,0,0,1-.908.607,2.918,2.918,0,0,1-.2-1.034c.282-1.471.634-2.928.975-4.455a12.5,12.5,0,0,0-2.167.024,10.767,10.767,0,0,0-3.032.854C2156.175,230.888,2156.77,231.795,2156.6,232.635Z" transform="translate(-2042.434 -223.303)" fill="#331405"/><path d="M1890.675,231.345l.2,1.765.22,0a1.6,1.6,0,0,1-.183.262c-.457.444-.925,1.073-1.632.623-.632-.4-.44-1.09-.2-1.673.169-.4.1-.629-.309-.781a8.778,8.778,0,0,1-.84-.463c1.259-.1,1.285-.823,1.42-1.573.25-1.392.654-2.757.934-4.145a1.217,1.217,0,0,0-.294-.848,3.383,3.383,0,0,0-.752-.567,2.311,2.311,0,0,1,2.356-1.336,10.055,10.055,0,0,1,5.538,2.748,2.56,2.56,0,0,1-.229,4,7.719,7.719,0,0,1-1.59.741C1893.854,230.53,1892.364,230.9,1890.675,231.345Zm.973-7.145c1.172,1.227,1.173,1.227.533,2.647a4.64,4.64,0,0,0-.244.531c-.281.929-.551,1.862-.824,2.794l.237.223c1.237-.473,2.5-.894,3.7-1.435a1.237,1.237,0,0,0,.6-1.943C1894.833,225.485,1893.354,224.868,1891.648,224.2Z" transform="translate(-1887.939 -222.549)" fill="#331405"/><path d="M2238.156,231.4c.05.455.117,1.073.184,1.689l.208-.011a1.357,1.357,0,0,1-.187.274c-.449.408-.9,1.007-1.575.623s-.461-1.073-.252-1.652c.174-.485.056-.738-.427-.876a2.16,2.16,0,0,1-.465-.3c.163-.124.254-.245.367-.27.542-.123.657-.41.73-.984a25.32,25.32,0,0,1,.862-3.9c.228-.776.274-1.385-.465-1.877a2.433,2.433,0,0,1-.407-.487c.736-.71,1.421-1.323,2.563-1.054a10.7,10.7,0,0,1,5.286,2.722,2.5,2.5,0,0,1-.786,4.277C2242.008,230.258,2240.155,230.762,2238.156,231.4Zm.371-1.344.218.3c1.233-.466,2.487-.883,3.692-1.413a1.253,1.253,0,0,0,.667-1.986c-.816-1.533-2.311-2.132-4-2.813,1.154,1.239,1.115,1.223.509,2.709C2239.191,227.9,2238.886,228.991,2238.527,230.061Z" transform="translate(-2089.564 -222.506)" fill="#331405"/><path d="M2066.033,233.725a2.552,2.552,0,0,1-2.618.091l1.511-3.05c-1.678-1.358-2.3-3.341-2.763-5.4-.216-.957-.051-1.162.943-1.314.137-.021.275-.046.411-.078.933-.217,1.2.1,1.291,1.053a33.009,33.009,0,0,0,.659,3.652c.049.232.285.425.5.73.663-.909,1.225-1.738,1.846-2.519q1.225-1.539,2.536-3.007c.171-.192.527-.218.8-.321.091.3.307.621.254.891a9.441,9.441,0,0,1-2.492,4.171,33.687,33.687,0,0,0-2.458,3.354A6.137,6.137,0,0,0,2066.033,233.725Z" transform="translate(-1988.92 -223.12)" fill="#331405"/><path d="M1968.162,231.069c-.766-.562-1.562-1.145-2.357-1.73a19.571,19.571,0,0,1-1.8-1.348,1.29,1.29,0,0,1-.142-1.827,3.825,3.825,0,0,1,1.316-1.249c1.574-.7,3.2-1.3,4.831-1.832a1.3,1.3,0,0,1,1.187.36c.3.547-.1.971-.669,1.208-.774.322-1.515.723-2.3,1.017-.377.142-.9.347-1.046-.353-1.477.708-1.57,1.324-.31,2.356.778.638,1.646,1.169,2.4,1.833a7.833,7.833,0,0,1,.926,1.323c.284.387.6.751.894,1.118-.053.077-.081.154-.109.154-1.652.007-3,.9-4.464,1.481a3.8,3.8,0,0,1-2.841.354,2.844,2.844,0,0,1-.633-.481c.2-.21.355-.524.6-.612a14.784,14.784,0,0,1,3.115-.949C1967.343,231.821,1967.78,231.811,1968.162,231.069Z" transform="translate(-1931.492 -222.823)" fill="#331405"/><path d="M2125.032,225.2c-.163.1-.332.2-.487.308-.876.634-.939,1.068-.112,1.8s1.707,1.357,2.586,2c.532.391,1.026.771,1.044,1.52,0,.141.19.289.312.414.218.22.45.425.7.659-.16.1-.205.154-.25.152-1.638-.048-2.933.93-4.39,1.427a10.522,10.522,0,0,1-2.758.387c-.237.014-.5-.35-.745-.541.215-.2.4-.492.652-.583,1-.359,2.012-.671,3.033-.957.191-.054.438.09.686.149l.8-.846c-.679-.535-1.313-1.059-1.972-1.549s-1.375-.944-2.041-1.443a1.4,1.4,0,0,1-.311-2.068,4.5,4.5,0,0,1,1.055-1.063,14.1,14.1,0,0,1,5.205-2c.9-.173,1.365.305,1.07,1.015a.848.848,0,0,1-.37.423c-.908.429-1.818.865-2.758,1.214-.262.1-.63-.091-.949-.149Z" transform="translate(-2023.048 -222.754)" fill="#331405"/><path d="M1996.174,224.835l-3.875.606c.351-1.683.561-1.938,1.977-2,1.7-.074,3.4-.082,5.094-.057,1.166.017,1.165.064,1.1,1.349H1997.7c1.215,1.041.379,2.087.129,3.044a20.943,20.943,0,0,0-1.049,5.375c0,.7-.686.7-1.261.649C1994.807,230.789,1995.672,227.919,1996.174,224.835Z" transform="translate(-1948.455 -223.009)" fill="#331405"/></g></g></g></svg>