<svg xmlns="http://www.w3.org/2000/svg" width="194.066" height="103.044" viewBox="0 0 194.066 103.044"><g transform="translate(-91.026 -35)"><g transform="translate(91.026 35)"><g transform="translate(42.044 82.459)"><path d="M1966.938,210.4c.605.079,1.208.2,1.816.23,1.1.061,2.2.067,3.3.109.952.037,1.9.086,2.853.143a2.729,2.729,0,0,1,.978.141.857.857,0,0,1,.377.633,8.369,8.369,0,0,1-.158,1.072.758.758,0,0,0,.839.82c1.077-.012,2.158-.059,3.231,0a3.891,3.891,0,0,1,1.329.465c.526.246,1.016.569,1.538.826.792.39.857,1.185,1,1.881a2.243,2.243,0,0,1-.9,1.947,10.776,10.776,0,0,1-1.872,1.737,3.861,3.861,0,0,1-3.215.851,11.373,11.373,0,0,0-2.527-.191c-.54-.02-1.176.209-1.6,0-.853-.427-1.739-.189-2.594-.367a14.4,14.4,0,0,0-2.275-.1c-.7-.031-1.4-.087-2.1-.12-1.15-.055-2.3-.1-3.451-.15-.979-.041-1.958-.088-2.937-.113-.579-.015-1.159.022-1.738.006-.46-.013-.917-.089-1.377-.1a9.121,9.121,0,0,0-1.826.1,1.672,1.672,0,0,0,.508.212c.525.03,1.054-.008,1.579.022q1.729.1,3.456.245c1.177.1,2.35.231,3.527.333,1.092.094,2.188.147,3.279.258.958.1,1.907.27,2.864.373.877.094,1.761.119,2.638.211,1.062.111,2.12.261,3.18.394l.037.211a1.832,1.832,0,0,1-.475.313,10.853,10.853,0,0,0-2.249.593,11.759,11.759,0,0,1-2.734.567,7.045,7.045,0,0,1-2.077.107c-1.43-.051-2.858-.154-4.286-.236-1.375-.079-2.751-.153-4.126-.242-.811-.052-1.62-.143-2.432-.19-1.081-.063-2.164-.1-3.245-.151-1.56-.075-3.12-.145-4.68-.234-.934-.053-1.866-.139-2.755-.207-.089-.588-.157-1.043-.2-1.308-.66-.065-1.118-.139-1.577-.147-.5-.009-1,.056-1.5.066-.823.017-1.646.01-2.469.024-.214,0-.429.075-.641.066-.948-.04-1.893-.121-2.841-.143-1.954-.045-3.909-.042-5.862-.1-1.627-.045-3.254-.135-4.88-.218-1.812-.092-3.624-.178-5.433-.305-1.993-.14-3.982-.346-5.976-.477-1.34-.088-2.686-.083-4.027-.142-1.364-.059-2.725-.158-4.089-.216-1.184-.051-2.369-.085-3.553-.1-1.5-.014-3.006.009-4.509,0-1.317,0-2.635-.062-3.95-.029-1.3.033-2.6.144-3.9.236-.862.061-1.724.132-2.58.24-.164.02-.3.23-.456.352.174.126.339.337.526.36.337.041.742.192.989-.244.033-.059.193-.065.293-.063,2.462.052,4.923.143,7.384.156,5.123.027,10.247-.008,15.371.033a26.246,26.246,0,0,1,2.954.37c.335.041.675.042,1.013.066.647.046,1.294.12,1.942.135.626.015,1.254-.05,1.881-.037a1.583,1.583,0,0,1,.535.233c-.12.158-.227.438-.364.454-.553.065-1.115.05-1.674.06-.2,0-.391,0-.586-.01-.424-.026-.822.23-1.3-.072a.992.992,0,0,0-1.149.107c-.148.135-.568-.023-.862-.058-.725-.087-1.448-.206-2.176-.26-.314-.023-.641.131-.957.116-.621-.03-1.24-.184-1.858-.176-.786.01-1.57.139-2.356.2-.351.027-.705.022-1.058.015a15.2,15.2,0,0,0-4.429.1,7.3,7.3,0,0,1-2.144-.184c-.626-.038-1.257-.012-1.886-.005-.143,0-.324.1-.423.046-.848-.488-1.765-.065-2.64-.213-.32-.054-.688.228-1.021.2-1.477-.13-2.948-.317-4.421-.483-.06-.007-.14-.055-.174-.031-.8.568-1.716.075-2.583.275a10.3,10.3,0,0,1-2.5-.087c-.363-.011-.728.09-1.092.087-.812-.007-1.625-.065-2.437-.068-1.02,0-2.041.025-3.061.043-2.62.044-5.239.074-7.858.141a29.045,29.045,0,0,1-3.657.162c-1.309-.135-2.593.035-3.889,0-1.279-.037-2.561-.045-3.84,0-2.657.086-5.312.26-7.969.3a21.151,21.151,0,0,1-3.074-.37,33.757,33.757,0,0,0-6.431-.352c-1.078.062-2.163-.023-3.245-.019-.548,0-1.1.039-1.642.093-.324.032-.421-.06-.471-.392a10.99,10.99,0,0,0-.416-1.737c-.48-1.481-.224-2.23,1.259-2.783a10.672,10.672,0,0,1,3.63-.406c.936-.016,1.128-.133.972-1.045-.032-.187-.348-.414-.569-.463-1.01-.225-2.05-.331-3.047-.6a13.824,13.824,0,0,1-4.5-1.713,7.513,7.513,0,0,1-1.834-1.545,1.815,1.815,0,0,1,.246-2.34,8.082,8.082,0,0,1,4.2-2.105,53.16,53.16,0,0,1,5.653-1.062c1.945-.254,3.914-.318,5.872-.474.881-.071,1.759-.191,2.641-.239,1.113-.061,2.228-.061,3.342-.106,1.243-.051,2.484-.158,3.727-.177,1.661-.025,3.323.029,4.984.016,1.792-.014,3.585-.066,5.377-.1,1.993-.042,3.986-.07,5.978-.136q2.7-.089,5.4-.253c.94-.055,1.875-.205,2.815-.259.524-.03,1.055.088,1.582.077,2.174-.041,4.347-.1,6.521-.162,1.26-.035,2.52-.1,3.779-.109,1.181-.006,2.363.066,3.545.074,1.528.011,3.056-.023,4.583,0,.476.006.949.166,1.426.183,1.618.059,3.238.05,4.854.136,1.306.069,2.6.253,3.908.356,1.178.093,2.36.132,3.538.22,1.768.133,3.533.306,5.3.426,1.15.078,2.306.07,3.456.141,1.84.113,3.676.28,5.517.382.984.054,1.974-.007,2.959.035.68.029,1.354.167,2.033.215.756.054,1.516.058,2.274.089,1.118.046,2.235.085,3.351.15.885.052,1.768.143,2.652.21,1.265.095,2.531.181,3.8.274,1.419.1,2.841.178,4.255.324,1.137.118,2.263.347,3.4.487.674.082,1.359.075,2.036.13.582.048,1.16.168,1.742.186,1.081.033,2.165.012,3.247.016,1.538.005,3.076.032,4.614.009.833-.012,1.664-.154,2.5-.153.988,0,1.975.094,2.962.151a2.408,2.408,0,0,0,.367.05,5.394,5.394,0,0,1,3.011.781,2.119,2.119,0,0,1,.89,1.022c.27.639.024.924-.695.925-1.106,0-2.213-.046-3.32-.046-.856,0-1.714.083-2.569.059-.934-.026-1.866-.135-2.8-.2a2.2,2.2,0,0,0-.349.029Zm-72.134,4.051c.356-.11.551-.161.74-.23,1.251-.46,2.527-.863,3.743-1.4,1.027-.456,1.051-1.355.065-1.872a9.138,9.138,0,0,0-5.02-1.04,1.3,1.3,0,0,0-1.335,1.52c.012.7.059,1.409.1,2.113.023.387-.049.661-.486.808-.4.135-.56.431-.07.693.38.2.39.482.3.844a4.65,4.65,0,0,0-.213,1.22c0,.169.3.391.512.469.1.036.376-.183.441-.341.194-.473.323-.973.491-1.506.249.091.423.15.593.216,1.708.663,3.414,1.333,5.127,1.983a1.609,1.609,0,0,0,.566-.005,2.777,2.777,0,0,0-.186-.68c-.068-.121-.278-.165-.428-.237-1.333-.647-2.669-1.286-4-1.943A10.833,10.833,0,0,1,1894.8,214.455Zm51.454.092c-.033.319-.089.648-.1.979a1.647,1.647,0,0,0,1.251,1.849,4.991,4.991,0,0,0,1.793,0,9.982,9.982,0,0,0,4.3-2.314,2.822,2.822,0,0,0,.671-3.314,3,3,0,0,0-3.248-1.534c-.692.209-1.372.456-1.937.646.013-.162.033-.4.052-.635a2.851,2.851,0,0,0-.782.171,1.662,1.662,0,0,0-.511.541c-.628.9-1.255,1.808-1.852,2.732a1.26,1.26,0,0,0-.154.7C1945.742,214.431,1946.062,214.482,1946.258,214.546Zm-79.6.2c0,.87-.01,1.689.008,2.507a1.853,1.853,0,0,0,.177.522c.2-.081.474-.108.594-.257a2.294,2.294,0,0,0,.3-.741,10.062,10.062,0,0,1,.634-2.491.25.25,0,0,0-.014-.231,2.287,2.287,0,0,1-.28-1.688c.059-.9-.141-1.339-1-1.643-.165-.059-.32-.143-.484-.218l.456-.841c-.288-.046-.513-.155-.666-.092a7.916,7.916,0,0,0-1.316.69c-.351.232-.849.1-.985.87a8.535,8.535,0,0,1-1.4,2.542,1.6,1.6,0,0,1-1.042.9.887.887,0,0,0-.482.624c-.041.221.154.486.278.821-.171.406-.419.915-.593,1.448-.062.191.057.441.093.664a2.993,2.993,0,0,0,.745-.189c.143-.077.213-.3.3-.465.28-.533.521-1.091.842-1.6a1.174,1.174,0,0,1,.659-.463C1864.529,215.169,1865.592,214.97,1866.655,214.75Zm68.18,1.679c.128-.627-.317-1.3.289-1.618a8.038,8.038,0,0,1,2.264-.637,9.336,9.336,0,0,1,1.619-.018c-.255,1.14-.518,2.228-.728,3.326a2.181,2.181,0,0,0,.149.772,3.422,3.422,0,0,0,.678-.453,1.954,1.954,0,0,0,.281-.622q.418-1.045.831-2.093a18.338,18.338,0,0,0,1.259-4.668.616.616,0,0,0-.225-.507c-.3-.163-1.654.728-1.521.987.309.6-.034,1.089-.122,1.61-.157.93-.381,1.051-1.361,1.019-.708-.024-1.417-.015-2.125.007-.362.012-.723.085-1.141.138.253-.986.485-1.87.7-2.758.061-.248.182-.682.105-.725a1.622,1.622,0,0,0-.863-.165c-.609.041-.81.464-.883,1.022a11.467,11.467,0,0,1-.41,2.314c-.261.746-.823,1.4-.152,2.2.084.1.01.326.024.492.022.27.055.539.086.808.061.522.381.68.842.535a2.638,2.638,0,0,0,1.318-1.141l-.1-.134Zm-83.21-.4c1.261-.335,2.374-.609,3.471-.933a5.769,5.769,0,0,0,1.187-.553,1.912,1.912,0,0,0,.171-2.988,7.508,7.508,0,0,0-4.135-2.052,1.725,1.725,0,0,0-1.76,1,2.537,2.537,0,0,1,.561.424.909.909,0,0,1,.219.633c-.209,1.037-.51,2.056-.7,3.1-.1.561-.12,1.1-1.06,1.175a6.548,6.548,0,0,0,.627.345c.3.114.357.285.231.584-.183.435-.326.949.145,1.249.528.336.877-.134,1.218-.465a1.2,1.2,0,0,0,.136-.2l-.165,0Zm108.918.077c1.492-.48,2.877-.856,4.207-1.371a1.863,1.863,0,0,0,.587-3.194,7.99,7.99,0,0,0-3.947-2.032,1.954,1.954,0,0,0-1.914.787,1.821,1.821,0,0,0,.3.364c.552.368.518.822.348,1.4a18.844,18.844,0,0,0-.644,2.916c-.055.429-.141.643-.545.735-.084.019-.153.109-.274.2a1.619,1.619,0,0,0,.347.226c.361.1.449.292.319.654-.155.433-.31.95.189,1.234s.841-.161,1.177-.466a1.032,1.032,0,0,0,.139-.2l-.155.008C1960.631,216.906,1960.581,216.446,1960.544,216.106Zm-53.377,1.274a4.571,4.571,0,0,1,.314-1.3,25.2,25.2,0,0,1,1.836-2.5,7.049,7.049,0,0,0,1.861-3.115c.039-.2-.122-.443-.19-.665-.2.077-.467.1-.6.24q-.978,1.095-1.893,2.245c-.464.584-.884,1.2-1.379,1.881-.163-.228-.339-.372-.376-.545a24.616,24.616,0,0,1-.492-2.728c-.068-.709-.268-.948-.964-.786-.1.024-.2.043-.307.058-.742.113-.865.267-.7.981a6.736,6.736,0,0,0,2.063,4.03l-1.128,2.278A1.906,1.906,0,0,0,1907.167,217.38Zm-30.2-1.762c-.285.553-.611.561-1.049.616a11.031,11.031,0,0,0-2.326.709c-.18.065-.3.3-.445.457a2.12,2.12,0,0,0,.473.359,2.839,2.839,0,0,0,2.122-.264,9.213,9.213,0,0,1,3.333-1.106c.021,0,.042-.057.082-.115-.22-.274-.456-.545-.668-.835a5.846,5.846,0,0,0-.691-.988c-.562-.5-1.21-.893-1.791-1.369-.941-.771-.871-1.231.232-1.76.111.523.5.369.781.263.585-.22,1.139-.519,1.717-.76.427-.178.721-.494.5-.9a.97.97,0,0,0-.886-.269c-1.222.4-2.432.849-3.607,1.368a2.855,2.855,0,0,0-.983.932.963.963,0,0,0,.106,1.364,14.619,14.619,0,0,0,1.343,1.006Zm48.774-4.328v.2c.239.043.513.184.709.111.7-.261,1.381-.586,2.059-.907a.632.632,0,0,0,.277-.316c.22-.53-.128-.887-.8-.758a10.534,10.534,0,0,0-3.887,1.494,3.354,3.354,0,0,0-.787.794,1.042,1.042,0,0,0,.232,1.544c.5.373,1.025.707,1.524,1.078s.966.757,1.473,1.157l-.6.632c-.186-.044-.37-.152-.513-.111-.762.214-1.52.447-2.265.715-.19.068-.326.286-.486.435.185.142.379.414.556.4a7.858,7.858,0,0,0,2.06-.289c1.088-.371,2.055-1.1,3.278-1.065.033,0,.067-.039.187-.114-.187-.175-.361-.328-.523-.492-.091-.093-.231-.2-.233-.309-.013-.559-.383-.843-.78-1.135-.656-.483-1.322-.958-1.932-1.5s-.57-.868.084-1.341C1925.492,211.437,1925.618,211.367,1925.739,211.291Zm-40.523-.467c-.375,2.3-1.021,4.446-.486,6.7.429.041.943.038.942-.485a15.646,15.646,0,0,1,.784-4.014c.187-.715.812-1.5-.1-2.273h2.063c.05-.96.051-.995-.819-1.008-1.268-.019-2.538-.013-3.8.042-1.057.045-1.214.236-1.476,1.492Zm35.584,7.4c1.2.442,14.838,1.122,15.409.625C1931.01,218.425,1925.908,218.372,1920.8,218.226Zm18.508,1.065q-.007-.144-.015-.288h-2.809c.051.056.129.223.232.241a5.312,5.312,0,0,0,.864.045C1938.156,219.295,1938.732,219.291,1939.308,219.291Zm-19.245-.9-.018-.149h-2.3l.007.149Zm45.083-8.2.032.108h1.4l-.01-.108Z" transform="translate(-1832.048 -203.497)" fill="#fff"/><path d="M2120.672,261.031c-.234.172-.4.372-.5.346a.607.607,0,0,1-.366-.377c-.023-.082.216-.336.327-.329C2120.287,260.678,2120.431,260.858,2120.672,261.031Z" transform="translate(-2029.528 -242.733)" fill="#fff"/><path d="M2029.639,230.138c.131-.409.287-.813.383-1.23.054-.235.106-.589-.018-.715s-.474-.076-.725-.085a.713.713,0,0,0-.229.075l-.143-.114c.131-.167.229-.419.4-.482a1.871,1.871,0,0,1,.916-.112c.86.141,1.716.318,2.559.538.249.065.449.321.671.489-.2.194-.367.466-.606.568-1.011.428-2.043.805-3.068,1.2Z" transform="translate(-1967.147 -219.94)" fill="#fff"/><path d="M2200.74,231.984a10.884,10.884,0,0,1,.339-1.768,2.555,2.555,0,0,1,.811-1.183,3.3,3.3,0,0,1,2.612-.559,1.889,1.889,0,0,1,1.28,2.591,4.517,4.517,0,0,1-3.353,2.545C2201.278,233.831,2200.774,233.309,2200.74,231.984Z" transform="translate(-2085.072 -220.592)" fill="#fff"/><path d="M1932.935,232.528c.516-.773.908-1.407,1.352-2,.168-.225.529-.556.671-.5a1.833,1.833,0,0,1,.859.728,2.232,2.232,0,0,1,.111.968c.022.46-.2.648-.67.657C1934.526,232.392,1933.793,232.47,1932.935,232.528Z" transform="translate(-1901.285 -221.698)" fill="#fff"/><path d="M1895.893,226.436a5.073,5.073,0,0,1,2.99,2.1.924.924,0,0,1-.449,1.451c-.9.4-1.841.719-2.764,1.072l-.177-.166c.2-.7.4-1.393.615-2.087a3.457,3.457,0,0,1,.183-.4C1896.769,227.352,1896.768,227.352,1895.893,226.436Z" transform="translate(-1875.589 -219.239)" fill="#fff"/><path d="M2242.511,230.832c.268-.8.5-1.614.814-2.392.452-1.109.481-1.1-.38-2.023,1.258.508,2.373.956,2.983,2.1a.936.936,0,0,1-.5,1.483c-.9.4-1.837.707-2.757,1.055Z" transform="translate(-2113.739 -219.226)" fill="#fff"/></g><g transform="translate(0 0)"><path d="M1709.3-29.376c-.151.035-.2.031-.23.056-.955.926-2.1,3.034-1.558,4.64,1.134,3.368,2.267,6.737,3.345,10.123.733,2.3,1.368,4.639,2.051,6.959.1.341.246.669.331,1.013.236.948.414,1.911.685,2.848.264.911.917,1.059,1.633.411.215-.195.381-.442.585-.651.4-.412.825-.8,1.214-1.225a4.346,4.346,0,0,0,.593-.8q2.463-4.37,4.906-8.752,1.33-2.382,2.635-4.777a1.14,1.14,0,0,0,.213-.7c-.231-.828.23-1.443.527-2.126.262-.6.441-1.245.649-1.873.189-.572.369-1.147.55-1.721.218-.688.38-1.4.662-2.059.589-1.378,1.189-2.755,1.878-4.085.827-1.595,1.765-3.132,2.626-4.71a2.446,2.446,0,0,1,2.073-1.086c.244-.035.643.361.826.651,1.146,1.807,2.28,3.623,3.354,5.474a14.718,14.718,0,0,1,1,2.352c.045.121-.164.447-.323.511a9.2,9.2,0,0,1-1.672.526,7.208,7.208,0,0,0-3.955,2.493,33.705,33.705,0,0,0-2.938,3.563c-1.374,2.016-2.628,4.115-3.89,6.205-1.543,2.556-3.022,5.15-4.563,7.707-1.38,2.29-2.812,4.549-4.214,6.827a.9.9,0,0,0,.407,1.438c2.449,1.07,4.89,2.166,7.381,3.129,1.761.681,3.6,1.158,5.4,1.743.4.129.758.355,1.152.493,1.377.48,2.751.971,4.143,1.4,2.187.68,4.378,1.357,6.588,1.955,1.444.39,2.939.589,4.389.961A68.442,68.442,0,0,0,1757.061,11c2.54.291,5.1.392,7.656.56,1.906.125,3.813.269,5.721.322,1.638.046,3.279-.023,4.919-.045,1.062-.014,2.125-.009,3.185-.059,1.517-.071,3.035-.157,4.549-.284q2.7-.227,5.4-.54c1.738-.2,3.469-.46,5.2-.674,4.242-.523,8.19-2.124,12.237-3.356a18.112,18.112,0,0,0,4.3-1.659c1.883-1.168,4.115-1.5,5.939-2.741a12.6,12.6,0,0,1,1.213-.493,6.792,6.792,0,0,0,1.4-.9,1.429,1.429,0,0,0,.36-1.655c-.666-1.915-1.326-3.835-1.885-5.782a4.78,4.78,0,0,1-.188-3.293.685.685,0,0,0,.014-.367c-.142-.775-.266-1.555-.45-2.319-.3-1.252-.622-2.5-.985-3.737a1.171,1.171,0,0,1,.738-1.654,4.125,4.125,0,0,1,2.631-.12,23.8,23.8,0,0,0,3.09.394c.467.042.959-.117,1.412-.036a1.373,1.373,0,0,1,.735,2.127,15.578,15.578,0,0,1-1.905,1.69,3.737,3.737,0,0,0-1.319,2.68c-.182,1.571-.283,3.156-.31,4.738a13.353,13.353,0,0,0,1.5,5.385.441.441,0,0,0,.388.183,5.956,5.956,0,0,0,1.271-.505q2.083-1.239,4.126-2.546c.647-.415,1.25-.9,1.872-1.355,1.541-1.128,3.131-2.193,4.607-3.4,1.653-1.352,3.25-2.781,4.774-4.275a24.1,24.1,0,0,0,2.068-2.669,1.676,1.676,0,0,0,.225-1.766,13.363,13.363,0,0,1-.542-1.669c-.468-1.852-.889-3.717-1.375-5.565-.245-.928-.594-1.828-.9-2.741q-1.737-5.272-3.471-10.545c-.487-1.485-.621-1.582-1.83-.664a11.039,11.039,0,0,1-5.157,2.126,7.381,7.381,0,0,1-7.714-5c-.7-2.112-1.593-4.161-2.357-6.254-.312-.854-1.027-1.155-1.74-1.5a1.7,1.7,0,0,1-.674-2.447,1.693,1.693,0,0,1,.754-.515c1.662-.565,3.335-1.1,5.007-1.636a2.372,2.372,0,0,1,.732-.131c.773.008,1.115.527.79,1.221a3.673,3.673,0,0,1-.61.938,3.784,3.784,0,0,0-.832,3.853c.64,2.164,1.379,4.3,2.146,6.424a3.252,3.252,0,0,0,2.791,2.166,6.5,6.5,0,0,0,3.882-.67,5.956,5.956,0,0,0,1.959-1.773c1.226-1.557,1.133-3.358.622-5.136-.5-1.727-1.14-3.411-1.658-5.133a2.207,2.207,0,0,0-1.436-1.6,4.456,4.456,0,0,1-1.033-.58,1.188,1.188,0,0,1-.18-2,2.224,2.224,0,0,1,.757-.53c2.531-.913,5.071-1.8,7.609-2.7.427-.15.868-.263,1.2.18a1.111,1.111,0,0,1-.018,1.4c-.325.483-.653.965-.944,1.469a5,5,0,0,0-.651,1.347,22.9,22.9,0,0,0-.407,2.81,15.1,15.1,0,0,0,.955,5.923c.494,1.578.763,3.226,1.132,4.843.024.1.045.2.074.3a59.279,59.279,0,0,1,1.6,5.711c.444,2.448,1.455,4.7,2.094,7.071.616,2.29,1.194,4.59,1.8,6.883.1.363.217.721.342,1.075.206.585.5.669.964.227.559-.532,1.1-1.088,1.612-1.667.822-.931,1.657-1.857,2.4-2.849.574-.763,1.014-1.625,1.52-2.439a10.143,10.143,0,0,1,2.2-2.833,4.383,4.383,0,0,0,.889-1.348c1.444-2.569,2.887-5.138,4.3-7.725a4.235,4.235,0,0,0,.269-1.183c.02-.1-.02-.217.011-.312.554-1.671.611-3.5,1.655-5.018.328-.476.69-.884,1.308-.8a1.61,1.61,0,0,1,1.343,1.072,22.335,22.335,0,0,0,1.123,2.15c.609,1.111,1.228,2.217,1.846,3.323a6.539,6.539,0,0,0,.391.636,2.206,2.206,0,0,1,.25,2.146c-.177.5-.84.728-1.622.654a3.748,3.748,0,0,0-1.6,0,4.383,4.383,0,0,0-1.834,1.2c-1.512,1.908-2.894,3.919-4.355,5.868-.794,1.06-1.682,2.051-2.471,3.115-1.192,1.608-2.327,3.259-3.5,4.88-.316.436-.7.826-1.041,1.241-1.222,1.471-2.453,2.935-3.649,4.428a.979.979,0,0,0-.136.795c.712,2.083.742,4.307,1.33,6.4a16.09,16.09,0,0,1,.283,3.377,13.874,13.874,0,0,1-1.579,7.215,16.285,16.285,0,0,1-5.692,6.009A12.728,12.728,0,0,1,1835,10.334a13.72,13.72,0,0,1-8.912-1.693,28.007,28.007,0,0,1-4.569-3.553c-.5-.431-.91-.688-1.542-.416-1.376.591-2.758,1.171-4.133,1.766-.8.347-1.581.749-2.392,1.071-5.363,2.131-10.9,3.745-16.422,5.381a33.256,33.256,0,0,1-3.99.691c-1.025.171-2.047.369-3.077.5-1.521.2-3.047.351-4.571.525-.246.028-.491.073-.738.1-.531.053-1.064.1-1.6.146-1.075.1-2.149.219-3.226.308s-2.156.2-3.234.21c-1.2.008-2.407-.131-3.611-.139-1.6-.011-3.21.131-4.807.047-2.634-.139-5.261-.4-7.891-.621-1.8-.149-3.615-.213-5.4-.487-3-.461-5.989-1.016-8.966-1.613-2-.4-3.988-.857-5.938-1.435-2.619-.776-5.169-1.788-7.8-2.521a75.915,75.915,0,0,1-7.708-3.127c-2.305-.923-4.557-1.978-6.834-2.97a3.072,3.072,0,0,0-.707-.245.587.587,0,0,0-.705.825c1.011,3.035,2.089,6.049,3.011,9.11a34.539,34.539,0,0,1,.7,4.107c.421,2.446-.35,4.7-1.039,6.988a10.479,10.479,0,0,1-2.523,4.48,8.8,8.8,0,0,1-3.462,2.043c-2.724.955-5.016.163-7.134-1.546-.049-.039-.119-.074-.137-.125-.524-1.505-1.051-3.009-1.548-4.523-.047-.145.066-.368.153-.528.734-1.338,1.491-2.664,2.218-4.006a2.3,2.3,0,0,1,1.5-1.227,6.824,6.824,0,0,1,3.041-.561,3.847,3.847,0,0,1,3.123,2.483c.153.389.253.8.422,1.181a2.649,2.649,0,0,1-.243,2.637,4.834,4.834,0,0,1-3.893,2.184,1.477,1.477,0,0,1-1.428-.734.779.779,0,0,0-1.129-.328.934.934,0,0,0-.251,1.373,3.472,3.472,0,0,0,3.046,1.139,5.114,5.114,0,0,0,4.589-3.609,6.6,6.6,0,0,0,.6-3.349,5.9,5.9,0,0,0-.2-.905q-2-6.269-4.028-12.531c-.2-.614-.475-1.2-.713-1.8a1.416,1.416,0,0,0-1.467-.93,46.351,46.351,0,0,1-6.041-.223c-2.823-.423-4.757-1.881-5.332-4.784a2.9,2.9,0,0,1,.179-1.586,9.884,9.884,0,0,1,1.4-2.563,3.171,3.171,0,0,1,1.77-.806,9.065,9.065,0,0,1,5.153.567c.666.267.951.083.987-.622a2.438,2.438,0,0,0-.112-.859c-.768-2.366-1.615-4.708-2.316-7.094q-1.074-3.653-1.908-7.374a4.779,4.779,0,0,1,.25-3.251c.263-.535.124-1.269.389-1.8.758-1.528,1.617-3.008,2.462-4.492a5.082,5.082,0,0,1,3.5-2.3c1.229-.3,2.387-.933,3.707-.8a4.908,4.908,0,0,1,1.1.211,4.609,4.609,0,0,1,3.407,4.136,4.209,4.209,0,0,1-1.2,3.8,2.973,2.973,0,0,1-.835.527c-.723.27-1.463.5-2.205.717a3.427,3.427,0,0,1-3.842-2.034c-.221-.751-.315-1.539-.476-2.308A4.544,4.544,0,0,0,1709.3-29.376Zm135.55,22.842c-.346-1.461-.748-3.236-1.209-5-.056-.213-.407-.39-.659-.489-.095-.037-.32.171-.443.306-.83.906-1.59,1.886-2.483,2.722-1.279,1.2-2.629,2.32-3.994,3.418-.971.781-2,1.492-3.036,2.193-.947.642-1.931,1.229-2.9,1.837-1.48.928-2.977,1.829-4.434,2.791a8.335,8.335,0,0,0-1.38,1.25.6.6,0,0,0-.041.577,20.789,20.789,0,0,0,3.212,2.849,12.034,12.034,0,0,0,7.234,1.485,7.394,7.394,0,0,0,4.921-2.029c1.268-1.264,2.443-2.622,3.653-3.943a1.152,1.152,0,0,0,.186-.325C1844.479-1.219,1844.581-3.707,1844.848-6.534Zm-137.837,7a1.992,1.992,0,0,0,.719-.016,4.6,4.6,0,0,0,.785-.552c-.174-.214-.307-.5-.529-.628a18.315,18.315,0,0,0-1.95-.994,11.269,11.269,0,0,0-1.769-.6c-.4-.1-.873-.12-1.1.355s.062.806.4,1.079A5.308,5.308,0,0,0,1707.011.47Z" transform="translate(-1698.033 59.343)" fill="#fff"/><path d="M1920.94,30.885a10.548,10.548,0,0,1,3.149-7.385,7.985,7.985,0,0,1,3.607-2.411,12.836,12.836,0,0,1,2.448-.45c1.059-.093,1.274-.307,1.135-1.35a4.834,4.834,0,0,0-3.092-4.147,2.322,2.322,0,0,0-2.857.9c-.433.712-.752,1.493-1.163,2.22a15.262,15.262,0,0,1-1.028,1.569,1.584,1.584,0,0,1-1.577.568c-.579-.08-.681-.624-.793-1.09-.339-1.42-.682-2.84-.981-4.269a2.114,2.114,0,0,1,1.623-2.457c2.267-.548,4.53-1.113,6.8-1.65a5.424,5.424,0,0,1,3.259.226,3.842,3.842,0,0,1,2.159,2.456c.58,1.624.957,3.321,1.411,4.989.339,1.247.675,2.5.994,3.748.386,1.513.733,3.037,1.136,4.546q.411,1.541.932,3.053a1.078,1.078,0,0,0,1.859.167c.128-.163.213-.36.337-.527a.9.9,0,0,1,1.594-.023,3.063,3.063,0,0,1,.59,1.288c.267,2.067.411,4.15.7,6.214a2.1,2.1,0,0,1-2.744,2.193,25.32,25.32,0,0,1-2.361-1c-.754-.346-1.088-.28-1.567.4-.514.736-.987,1.5-1.539,2.21a5.47,5.47,0,0,1-4.27,2.063,7.243,7.243,0,0,1-3.2-.914,11.645,11.645,0,0,1-4.841-4.7A13.7,13.7,0,0,1,1920.94,30.885Zm9.912,5.135a3.392,3.392,0,0,0,2.506-1.257,2.154,2.154,0,0,0,.665-1.992c-.156-1.01-.239-2.035-.446-3.035-.333-1.611-.7-3.219-1.136-4.8a1.711,1.711,0,0,0-1.822-1.227,5.784,5.784,0,0,0-5.481,4.12,5.692,5.692,0,0,0,1.2,5.9A6.47,6.47,0,0,0,1930.853,36.02Z" transform="translate(-1850.189 11.219)" fill="#fff"/><path d="M1848.792,34.542a7.518,7.518,0,0,0,4.432-2.14,12.353,12.353,0,0,0,2.681-4.039,1.43,1.43,0,0,0,.13-.777,5.261,5.261,0,0,1,.94-4.151,1.406,1.406,0,0,1,1.045-.506c.28.022.631.429.771.745a23.608,23.608,0,0,1,1.3,5.647c.174,1.007.371,2.011.5,3.024a2.32,2.32,0,0,1-1.8,2.357c-2.091.666-4.2,1.281-6.27,2.007-1.232.432-2.4,1.036-3.6,1.56-.628.274-1.269.522-1.885.822a1.852,1.852,0,0,0-.682.54c-.853,1.183-2.2,1.314-3.442,1.539a1.286,1.286,0,0,1-1.424-1.808,39.45,39.45,0,0,0,1.01-3.9,1.374,1.374,0,0,0-.04-.782c-.85-2.6-1.773-5.183-2.562-7.8-.472-1.566-.719-3.2-1.11-4.791-.193-.79-.473-1.56-.731-2.332-1.247-3.726-2.544-7.436-3.729-11.182-.511-1.617-.741-3.321-1.194-4.96a35.759,35.759,0,0,0-1.4-4.087c-.165-.4-.706-.67-1.116-.937a7.5,7.5,0,0,0-1.031-.453,1.508,1.508,0,0,1-.955-1.536,1.464,1.464,0,0,1,1.06-1.274c.826-.295,1.687-.5,2.5-.821.981-.388,1.92-.886,2.9-1.285a12.6,12.6,0,0,1,2.532-.87,1.518,1.518,0,0,1,1.624,2.2c-1.029,1.859-.932,3.832-.783,5.8.125,1.651.485,3.283.717,4.927.114.8.135,1.621.265,2.421.136.838.351,1.662.535,2.492.031.142.134.288.115.419-.256,1.775.706,3.272,1.091,4.9.295,1.25.46,2.53.756,3.779.308,1.3.714,2.572,1.059,3.862.48,1.79,1.076,3.564,1.373,5.385a32.564,32.564,0,0,0,1.3,4.5C1845.973,34.01,1847.1,34.571,1848.792,34.542Z" transform="translate(-1787.65 23.883)" fill="#fff"/><path d="M2033.176-.357c.074-1.576,1.124-2.192,2.517-1.469.834.432,1.668.875,2.534,1.236a5.97,5.97,0,0,0,4.95-.168c1.9-.835,2.622-2.467,3.385-4.141a.708.708,0,0,0,.053-.427c-.466-1.887-1.112-3.657-3.112-4.476-1.429-.585-2.844-1.213-4.3-1.712a8.381,8.381,0,0,0-2.219-.312,13.707,13.707,0,0,1-6.326-2.18,5.545,5.545,0,0,1-2.584-3.339,5.378,5.378,0,0,1,.4-3.829,5.982,5.982,0,0,1,3.777-3.223c2.046-.643,4.041-1.443,6.065-2.155.858-.3,1.273-.062,1.556.808.35,1.073.7,2.146,1.073,3.211a3.124,3.124,0,0,0,.441.815,1.072,1.072,0,0,1,.009,1.436c-.385.485-.858.337-1.3.1a9.063,9.063,0,0,0-4.055-1.379,6.028,6.028,0,0,0-3.775,1.113c-1.5,1.109-1.268,2.905.543,3.909a13.545,13.545,0,0,0,3.364,1.107c2.405.587,4.848,1.024,7.241,1.656a8.768,8.768,0,0,1,5.124,3.768,9.466,9.466,0,0,1,1.344,3.781,9.909,9.909,0,0,1-.137,2.556,8.69,8.69,0,0,1-2.109,4.513c-.762,1.05-2,1.449-3.074,2.066-1.667.955-3.682,1.11-5.23,2.32-.374.292-.729.61-1.085.924a8.163,8.163,0,0,1-.83.75,1.217,1.217,0,0,1-2.008-.726c-.391-1.253-.715-2.527-1.129-3.772-.189-.568-.548-1.078-.782-1.634A8.919,8.919,0,0,1,2033.176-.357Z" transform="translate(-1924.405 36.926)" fill="#fff"/><path d="M1989.949-7.483c.126.565.269,1.127.372,1.7a9.836,9.836,0,0,1,.218,1.661,1.05,1.05,0,0,1-1.6,1,19.4,19.4,0,0,1-1.737-.993,5.258,5.258,0,0,0-5.1-.132,2.049,2.049,0,0,0-.72,3.052,3.861,3.861,0,0,0,1.081,1.02,17.18,17.18,0,0,0,5.437,2.015c.692.138,1.363.377,2.047.556a11.792,11.792,0,0,1,5.465,3.02,6.651,6.651,0,0,1,1.886,2.825,22.332,22.332,0,0,1,.736,2.774,8.146,8.146,0,0,1-2.48,7.175,9.619,9.619,0,0,1-3.007,1.96c-1.394.647-2.719,1.443-4.077,2.167-.568.3-1.138.6-1.722.875a1.376,1.376,0,0,1-1.814-.782c-.351-1.019-.568-2.084-.862-3.124-.245-.863-.473-1.735-.792-2.571a1.78,1.78,0,0,1,.45-1.9,1.327,1.327,0,0,1,1.569-.26c.764.28,1.5.634,2.259.926,1.926.74,4.832.061,5.911-1.43a14.979,14.979,0,0,0,1.115-2.025.811.811,0,0,0,.034-.543,21.992,21.992,0,0,0-.84-2.624,3.275,3.275,0,0,0-1.026-1.278,19.411,19.411,0,0,0-5.646-2.633,38.254,38.254,0,0,1-6.487-2.467,4.535,4.535,0,0,1-1.966-2.189A12.2,12.2,0,0,1,1977.8-2.2a2.93,2.93,0,0,1,.1-1.576,6.446,6.446,0,0,1,4.221-4.131c1.988-.637,3.95-1.35,5.927-2.021a1.214,1.214,0,0,1,1.734.833,13.949,13.949,0,0,1,.339,1.575Z" transform="translate(-1889.989 25.507)" fill="#fff"/><path d="M2171.918-4.71c.212.719-.249,1.216-.851,1.624a3.2,3.2,0,0,1-3.537.285,1.652,1.652,0,0,1-.686-.69,10.343,10.343,0,0,1-.615-1.773,3.5,3.5,0,0,1,1.519-2.907,2.584,2.584,0,0,1,2.865.313A3.816,3.816,0,0,1,2171.918-4.71Z" transform="translate(-2019.323 24.433)" fill="#fff"/></g><g transform="translate(59.578 88.423)"><path d="M2026.463,228.417a10.906,10.906,0,0,0,.943.606c1.328.657,2.664,1.3,4,1.943.149.072.36.116.427.237a2.76,2.76,0,0,1,.186.68,1.608,1.608,0,0,1-.566.005c-1.713-.65-3.419-1.32-5.127-1.983-.17-.066-.343-.125-.593-.216-.168.532-.3,1.032-.49,1.506-.065.158-.345.377-.441.341-.209-.079-.509-.3-.512-.469a4.64,4.64,0,0,1,.213-1.22c.091-.361.08-.641-.3-.844-.49-.262-.332-.558.071-.693.437-.146.509-.42.486-.808-.042-.7-.089-1.408-.1-2.113a1.3,1.3,0,0,1,1.336-1.52,9.138,9.138,0,0,1,5.02,1.04c.986.517.962,1.416-.065,1.872-1.216.54-2.492.944-3.743,1.4C2027.014,228.256,2026.819,228.307,2026.463,228.417Zm-.264-.76.14.132c1.025-.4,2.057-.773,3.068-1.2.24-.1.406-.374.606-.568-.222-.168-.422-.424-.672-.489-.843-.22-1.7-.4-2.559-.538a1.872,1.872,0,0,0-.916.112c-.169.063-.268.315-.4.482l.143.114a.711.711,0,0,1,.229-.075c.251.009.591-.051.725.085s.072.479.018.715C2026.486,226.844,2026.33,227.247,2026.2,227.657Z" transform="translate(-1981.242 -223.423)" fill="#331405"/><path d="M2194.955,229.045c-.2-.064-.516-.115-.519-.179a1.261,1.261,0,0,1,.154-.7c.6-.924,1.224-1.829,1.852-2.732a1.669,1.669,0,0,1,.511-.541,2.857,2.857,0,0,1,.782-.171l-.052.635c.566-.19,1.245-.437,1.938-.646a3,3,0,0,1,3.248,1.534,2.823,2.823,0,0,1-.671,3.314,9.987,9.987,0,0,1-4.3,2.314,4.994,4.994,0,0,1-1.793,0,1.647,1.647,0,0,1-1.251-1.849C2194.866,229.693,2194.922,229.364,2194.955,229.045Zm1.458.343c.034,1.325.537,1.847,1.688,1.626a4.516,4.516,0,0,0,3.354-2.545,1.889,1.889,0,0,0-1.28-2.591,3.3,3.3,0,0,0-2.611.559,2.552,2.552,0,0,0-.81,1.183A10.832,10.832,0,0,0,2196.413,229.388Z" transform="translate(-2098.28 -223.959)" fill="#331405"/><path d="M1929.6,228.01c-1.063.22-2.127.419-3.178.671a1.175,1.175,0,0,0-.659.463c-.321.507-.562,1.064-.841,1.6-.087.166-.157.388-.3.465a3,3,0,0,1-.745.189c-.036-.223-.155-.472-.093-.664.174-.533.422-1.042.593-1.448-.124-.335-.319-.6-.278-.821a.887.887,0,0,1,.482-.624,1.6,1.6,0,0,0,1.043-.9,8.533,8.533,0,0,0,1.4-2.542c.137-.774.635-.638.985-.87a7.909,7.909,0,0,1,1.317-.69c.152-.064.377.046.666.092l-.456.841c.164.074.319.159.484.218.856.3,1.055.744,1,1.643a2.287,2.287,0,0,0,.28,1.688.251.251,0,0,1,.015.231,10.069,10.069,0,0,0-.634,2.491,2.291,2.291,0,0,1-.3.741c-.121.149-.391.176-.595.257a1.872,1.872,0,0,1-.176-.522C1929.589,229.7,1929.6,228.88,1929.6,228.01Zm-2.957-.423c.858-.059,1.59-.137,2.323-.15.473-.009.692-.2.67-.657a2.234,2.234,0,0,0-.11-.968,1.832,1.832,0,0,0-.859-.728c-.142-.055-.5.275-.671.5C1927.552,226.18,1927.159,226.814,1926.643,227.588Z" transform="translate(-1912.527 -222.721)" fill="#331405"/><path d="M2156.033,230.418l.813-.307.1.134a2.638,2.638,0,0,1-1.318,1.141c-.461.146-.781-.013-.842-.535-.031-.269-.064-.538-.087-.808-.014-.166.06-.392-.024-.492-.671-.8-.108-1.456.153-2.2a11.5,11.5,0,0,0,.41-2.314c.072-.557.273-.981.882-1.022a1.622,1.622,0,0,1,.863.165c.077.043-.044.477-.1.725-.219.887-.451,1.771-.7,2.758.418-.053.778-.126,1.14-.138.708-.022,1.418-.03,2.125-.007.98.032,1.2-.088,1.362-1.019.088-.521.43-1.014.122-1.61-.134-.259,1.217-1.151,1.52-.987a.616.616,0,0,1,.225.507,18.363,18.363,0,0,1-1.259,4.668q-.414,1.048-.831,2.093a1.968,1.968,0,0,1-.281.622,3.414,3.414,0,0,1-.678.453,2.189,2.189,0,0,1-.149-.772c.211-1.1.474-2.187.729-3.326a9.334,9.334,0,0,0-1.618.018,8.039,8.039,0,0,0-2.265.637C2155.716,229.113,2156.161,229.79,2156.033,230.418Z" transform="translate(-2070.78 -223.449)" fill="#331405"/><path d="M1889.982,229.125l.151,1.318.165,0a1.2,1.2,0,0,1-.136.2c-.341.332-.691.8-1.219.465-.472-.3-.329-.814-.146-1.249.126-.3.073-.47-.231-.584a6.553,6.553,0,0,1-.628-.345c.94-.077.96-.614,1.061-1.175.187-1.04.488-2.059.7-3.1a.908.908,0,0,0-.219-.633,2.525,2.525,0,0,0-.561-.424,1.726,1.726,0,0,1,1.76-1,7.509,7.509,0,0,1,4.135,2.052,1.912,1.912,0,0,1-.171,2.988,5.76,5.76,0,0,1-1.187.553C1892.356,228.516,1891.244,228.79,1889.982,229.125Zm.727-5.336c.875.916.876.916.4,1.976a3.473,3.473,0,0,0-.183.4c-.21.694-.411,1.391-.615,2.087l.177.166c.923-.353,1.864-.668,2.764-1.072a.924.924,0,0,0,.449-1.451A5.072,5.072,0,0,0,1890.709,223.79Z" transform="translate(-1887.939 -222.557)" fill="#331405"/><path d="M2237.519,229.151c.037.34.087.8.138,1.261l.155-.008a1.028,1.028,0,0,1-.14.2c-.335.3-.673.752-1.177.466s-.344-.8-.189-1.234c.13-.362.042-.551-.319-.654a1.622,1.622,0,0,1-.347-.226c.122-.093.19-.183.274-.2.4-.092.491-.306.545-.735a18.943,18.943,0,0,1,.644-2.916c.17-.58.2-1.034-.347-1.4a1.819,1.819,0,0,1-.3-.364,1.954,1.954,0,0,1,1.914-.787,7.992,7.992,0,0,1,3.947,2.032,1.863,1.863,0,0,1-.587,3.194C2240.4,228.295,2239.012,228.671,2237.519,229.151Zm.277-1,.163.224c.92-.348,1.857-.659,2.757-1.055a.936.936,0,0,0,.5-1.483c-.61-1.145-1.725-1.592-2.983-2.1.861.925.833.914.38,2.023C2238.292,226.534,2238.064,227.349,2237.8,228.148Z" transform="translate(-2126.558 -222.506)" fill="#331405"/><path d="M2065.031,231.152a1.906,1.906,0,0,1-1.955.068l1.129-2.278a6.734,6.734,0,0,1-2.063-4.03c-.161-.714-.038-.868.7-.981.1-.016.206-.035.307-.058.7-.162.9.077.964.786a24.671,24.671,0,0,0,.492,2.728c.037.173.213.318.376.545.495-.679.915-1.3,1.379-1.881q.915-1.149,1.894-2.245c.128-.143.393-.163.6-.24.068.222.229.463.19.665a7.047,7.047,0,0,1-1.861,3.115,25.22,25.22,0,0,0-1.836,2.5A4.587,4.587,0,0,0,2065.031,231.152Z" transform="translate(-2007.447 -223.233)" fill="#331405"/><path d="M1966.867,229.039l-1.76-1.292a14.6,14.6,0,0,1-1.343-1.006.963.963,0,0,1-.106-1.364,2.855,2.855,0,0,1,.982-.932c1.176-.52,2.386-.968,3.607-1.368a.971.971,0,0,1,.886.269c.221.408-.073.725-.5.9-.578.24-1.132.54-1.717.76-.282.106-.67.259-.781-.263-1.1.529-1.173.989-.232,1.76.581.476,1.229.873,1.791,1.369a5.848,5.848,0,0,1,.692.988c.212.289.447.561.668.835-.04.057-.06.115-.081.115a9.211,9.211,0,0,0-3.333,1.106,2.84,2.84,0,0,1-2.122.264,2.125,2.125,0,0,1-.473-.359c.147-.157.265-.392.445-.457a11.039,11.039,0,0,1,2.326-.709C1966.255,229.6,1966.581,229.593,1966.867,229.039Z" transform="translate(-1939.483 -222.881)" fill="#331405"/><path d="M2123.994,224.629c-.122.076-.248.146-.364.23-.654.473-.7.8-.084,1.341s1.275,1.013,1.931,1.5c.4.292.766.576.78,1.135,0,.105.142.216.233.309.163.164.336.317.523.492-.119.075-.153.115-.186.114-1.223-.036-2.191.695-3.278,1.065a7.861,7.861,0,0,1-2.06.289c-.177.01-.371-.262-.556-.4.161-.149.3-.367.487-.435.745-.268,1.5-.5,2.265-.715.143-.04.327.067.512.111l.6-.632c-.507-.4-.98-.791-1.473-1.157s-1.026-.7-1.524-1.078a1.042,1.042,0,0,1-.232-1.544,3.354,3.354,0,0,1,.788-.794,10.529,10.529,0,0,1,3.887-1.494c.671-.13,1.019.228.8.758a.633.633,0,0,1-.277.316c-.678.321-1.357.646-2.06.907-.2.073-.471-.068-.709-.111Z" transform="translate(-2047.837 -222.799)" fill="#331405"/><path d="M1995.193,224.465l-2.893.453c.262-1.257.419-1.447,1.476-1.492,1.266-.055,2.536-.061,3.8-.042.87.013.87.048.819,1.008h-2.063c.908.777.283,1.558.1,2.273a15.645,15.645,0,0,0-.784,4.014c0,.523-.513.525-.942.485C1994.172,228.911,1994.818,226.768,1995.193,224.465Z" transform="translate(-1959.559 -223.101)" fill="#331405"/></g></g></g></svg>