<svg xmlns="http://www.w3.org/2000/svg" width="30.125" height="22.686" viewBox="0 0 30.125 22.686"><g transform="translate(-692.361 186.673)"><path d="M708.255-186.25c3.444.143,7.679,1.067,10.629,3.94s4.181,7.645,2.282,11.3c-1.7,3.27-5.372,5.012-8.947,5.908a19.217,19.217,0,0,1-7.2.589,18.222,18.222,0,0,1-5.328-1.679,12.372,12.372,0,0,1-5.918-5.038,9.144,9.144,0,0,1,.347-8.6,13.348,13.348,0,0,1,6.908-5.426A18.868,18.868,0,0,1,708.255-186.25Z" transform="translate(0)" fill="none" stroke="#fed070" stroke-linecap="round" stroke-linejoin="round" stroke-miterlimit="10" stroke-width="0.8"/><path d="M729.589-170.7l-2.916.26a6.541,6.541,0,0,0-2.944.739,1.737,1.737,0,0,0-.9,1.286,1.681,1.681,0,0,0,.764,1.363c1.108.821,2.611.746,3.99.78a9.481,9.481,0,0,0,3.241-.2,2.461,2.461,0,0,0,1.828-2.4c-.108-.88-1.1-1.736-3.065-1.826" transform="translate(-20.48 -10.642)" fill="none" stroke="#fed070" stroke-linecap="round" stroke-linejoin="round" stroke-miterlimit="10" stroke-width="0.8"/><path d="M694.219-165.12c-.742,2.311-.827,3.514-.043,4.765a2.5,2.5,0,0,0,2.551,1.294c.6-.151,1.153-.608,1.761-.495,1.042.195,1.189,1.8,2.167,2.21a6.481,6.481,0,0,0,1.56.128c1.1.165,1.873,1.322,2.98,1.389,1.709.1,2.881-2.417,4.544-2.008.739.181,1.288.93,2.049.948.488.012.943-.291,1.432-.28a2.921,2.921,0,0,1,1.072.354c1.4.613,3.385.359,3.978-1.049a5,5,0,0,1,.534-1.356c.257-.307.664-.46.912-.774.376-.476.28-1.163.474-1.738a5.62,5.62,0,0,1,1.224-1.634,3.026,3.026,0,0,0-.136-2.605" transform="translate(-0.522 -13.87)" fill="none" stroke="#fed070" stroke-linecap="round" stroke-linejoin="round" stroke-miterlimit="10" stroke-width="0.8"/><path d="M705.644-161.268a2.025,2.025,0,0,0,.955-.323" transform="translate(-8.736 -16.864)" fill="none" stroke="#fed070" stroke-linecap="round" stroke-miterlimit="10" stroke-width="0.8"/><path d="M712.894-170.441a1.074,1.074,0,0,1,.806-.431" transform="translate(-13.69 -10.522)" fill="none" stroke="#fed070" stroke-linecap="round" stroke-miterlimit="10" stroke-width="0.8"/><path d="M724.428-178.669l.589.7" transform="translate(-21.572 -5.194)" fill="none" stroke="#fed070" stroke-linecap="round" stroke-miterlimit="10" stroke-width="0.8"/><path d="M740.4-179.318l.22-.824" transform="translate(-32.49 -4.187)" fill="none" stroke="#fed070" stroke-linecap="round" stroke-miterlimit="10" stroke-width="0.8"/><path d="M751.833-176.722l.561-.389" transform="translate(-40.299 -6.259)" fill="none" stroke="#fed070" stroke-linecap="round" stroke-miterlimit="10" stroke-width="0.8"/><line x2="1.339" y2="0.109" transform="translate(713.613 -181.373)" fill="none" stroke="#fed070" stroke-linecap="round" stroke-miterlimit="10" stroke-width="0.8"/><path d="M765.737-160.735a3.625,3.625,0,0,1,.7-.656" transform="translate(-49.801 -17.001)" fill="none" stroke="#fed070" stroke-linecap="round" stroke-miterlimit="10" stroke-width="0.8"/><path d="M762.752-151.306a2.14,2.14,0,0,1,.9.351" transform="translate(-47.761 -23.893)" fill="none" stroke="#fed070" stroke-linecap="round" stroke-miterlimit="10" stroke-width="0.8"/><path d="M754.226-147a1.472,1.472,0,0,1,.409-.661" transform="translate(-41.935 -26.385)" fill="none" stroke="#fed070" stroke-linecap="round" stroke-miterlimit="10" stroke-width="0.8"/><path d="M737.658-150.015a2.243,2.243,0,0,1,1.052.542" transform="translate(-30.613 -24.775)" fill="none" stroke="#fed070" stroke-linecap="round" stroke-miterlimit="10" stroke-width="0.8"/><path d="M730.58-142.3a1.5,1.5,0,0,1,.556-.724" transform="translate(-25.776 -29.551)" fill="none" stroke="#fed070" stroke-linecap="round" stroke-miterlimit="10" stroke-width="0.8"/><path d="M716.466-149.444l.942-.142" transform="translate(-16.131 -25.068)" fill="none" stroke="#fed070" stroke-linecap="round" stroke-miterlimit="10" stroke-width="0.8"/><path d="M716.486-159.488l.567.721" transform="translate(-16.145 -18.301)" fill="none" stroke="#fed070" stroke-linecap="round" stroke-miterlimit="10" stroke-width="0.8"/><path d="M769.725-171.955a1.886,1.886,0,0,1,.719.921" transform="translate(-52.526 -9.782)" fill="none" stroke="#fed070" stroke-linecap="round" stroke-miterlimit="10" stroke-width="0.8"/></g></svg>