<svg xmlns="http://www.w3.org/2000/svg" width="40.693" height="41.238" viewBox="0 0 40.693 41.238"><g transform="translate(-732.707 -389.384) rotate(14)"><path d="M846.3,201.224a3.734,3.734,0,0,0-4.591-2.552c-4.748,1.039-8.721,5.432-11.443,9.181-2.329.769-5.328,2.586-6.132,5.058a13.628,13.628,0,0,0-6.3,7.3,8.5,8.5,0,0,0-1.247.808,9.021,9.021,0,0,0-3.344,5.8c-.242,1.754,0,4.573,1.688,5.494a.417.417,0,0,0,.278.2c4.334.99,9.063-1.621,12.537-3.967a45.255,45.255,0,0,0,9.978-9.692c2.785-3.547,6.2-7.335,7.916-11.551A9.191,9.191,0,0,0,846.3,201.224Zm-1.376,6.089c-1.745,3.859-4.647,7.411-7.335,10.646a48.216,48.216,0,0,1-9.407,9.11c-3.822,2.644-8.1,4.8-12.846,4.5a.4.4,0,0,0-.29.1c-1.22-1.361-1.034-4.23-.669-5.712a7.843,7.843,0,0,1,3.61-4.933c3.5-2.088,7.452-1.443,11.253-.792.246.042.356-.315.1-.381-3.389-.89-7.536-1.414-10.874.054a13.2,13.2,0,0,1,6.444-6.778,12.365,12.365,0,0,1,5.23-.952,12.843,12.843,0,0,1,2.827.351,9.416,9.416,0,0,0,2.193.649c.241,0,.433-.348.216-.521-1.242-.989-3.537-1.189-5.067-1.171a14.236,14.236,0,0,0-5.007.9,8.986,8.986,0,0,1,5.553-3.949,14.088,14.088,0,0,1,4.32-.474c.8.03,2.772.679,3.435.157a.175.175,0,0,0,.028-.212c-.494-.788-2.891-.682-3.695-.7a14.793,14.793,0,0,0-3.969.434,29.327,29.327,0,0,1,9.13-7.522c2.016-1.026,4.752-1.463,5.609,1.2C846.336,203.229,845.719,205.559,844.925,207.314Z" transform="translate(0)" fill="#fed070"/><path d="M842.654,273.562c-.034.017-.034.018,0,0a.29.29,0,0,0-.075.036c-.043.022.03,0-.052.025-.019.005-.039.01-.059.013s-.054,0-.064,0a.2.2,0,0,0,0,.4.589.589,0,0,0,.492-.158A.2.2,0,0,0,842.654,273.562Z" transform="translate(-17.92 -46.25)" fill="#fed070"/><path d="M845.982,271.267a.226.226,0,0,0-.2-.114.308.308,0,0,0-.05.005.265.265,0,0,0-.188.041c-.035.026-.075.044-.112.068l-.088.064-.036.024c-.384.263-.02.894.367.628a.891.891,0,0,0,.349-.415.261.261,0,0,0-.02-.216A.623.623,0,0,0,845.982,271.267Zm.034.111c.009.053,0,.03-.006-.01Z" transform="translate(-19.729 -44.78)" fill="#fed070"/><path d="M835.617,246.718a.369.369,0,0,0-.176.522.374.374,0,0,0,.5.132.37.37,0,0,0,.074-.579A.362.362,0,0,0,835.617,246.718Z" transform="translate(-13.712 -29.687)" fill="#fed070"/><path d="M844.5,246.858a.19.19,0,0,0-.258.258.344.344,0,0,0,.118.12.191.191,0,0,0,.259-.259A.342.342,0,0,0,844.5,246.858Z" transform="translate(-19.157 -29.777)" fill="#fed070"/><path d="M858.283,228.1a.318.318,0,0,0-.542,0l-.012.018a.328.328,0,1,0,.566,0Z" transform="translate(-27.461 -18.129)" fill="#fed070"/><path d="M863.6,225.3a.391.391,0,0,0,0,.781A.391.391,0,0,0,863.6,225.3Z" transform="translate(-30.882 -16.498)" fill="#fed070"/><path d="M843.132,240.218a.373.373,0,0,0-.077-.153.44.44,0,1,0-.6.6.379.379,0,0,0,.153.077A.433.433,0,0,0,843.132,240.218Z" transform="translate(-17.935 -25.47)" fill="#fed070"/><path d="M823.642,262.922a.533.533,0,0,0-.056.174c0,.006,0,.011-.006.017a.288.288,0,0,0,.35.35l.017-.006a.541.541,0,0,0,.174-.056.35.35,0,1,0-.479-.479Z" transform="translate(-6.42 -39.597)" fill="#fed070"/><path d="M821.97,268.042a.368.368,0,0,0-.257.621l.031.033a.323.323,0,0,0,.452,0l.031-.033A.368.368,0,0,0,821.97,268.042Z" transform="translate(-5.212 -42.861)" fill="#fed070"/><path d="M879.575,209.209h-.045a.427.427,0,1,0,.426.427v-.045A.387.387,0,0,0,879.575,209.209Z" transform="translate(-40.678 -6.569)" fill="#fed070"/><path d="M883.326,206.065a.355.355,0,0,0,0,.71A.355.355,0,0,0,883.326,206.065Z" transform="translate(-43.07 -4.629)" fill="#fed070"/><path d="M889.2,225.983c-.108-.008-.23.163-.289.233a2.192,2.192,0,0,1-.282.29,4.227,4.227,0,0,0-.558.653c-.05.059.013.158.087.113a2.145,2.145,0,0,0,.7-.536c.1-.141.478-.516.405-.7A.071.071,0,0,0,889.2,225.983Z" transform="translate(-46.198 -16.916)" fill="#fed070"/><path d="M892.663,220.87c-.256.09-.289.373-.351.6a.279.279,0,0,0,.537.148c.064-.2.2-.463.059-.652A.223.223,0,0,0,892.663,220.87Z" transform="translate(-48.817 -13.756)" fill="#fed070"/></g></svg>