<svg xmlns="http://www.w3.org/2000/svg" width="49.331" height="11.412" viewBox="0 0 49.331 11.412"><path d="M353.936,458.868a.315.315,0,0,1,.314-.312l7.265,0,.043-.023c5.129-2.859,8.3-.737,9.148-.018l.052.044h2.4l-.626-.35a9.8,9.8,0,0,1-3.993-4.628.316.316,0,0,1,.051-.3.309.309,0,0,1,.28-.115,10.2,10.2,0,0,1,5.022,1.853l.747.565-.474-.808a8.574,8.574,0,0,1-.593-1.19.312.312,0,0,1,.33-.417,10.205,10.205,0,0,1,5.021,1.852l.747.565-.474-.808a8.642,8.642,0,0,1-.594-1.193.312.312,0,0,1,.331-.415,10.215,10.215,0,0,1,5.021,1.852l.748.565-.474-.808a8.593,8.593,0,0,1-.593-1.189.312.312,0,0,1,.33-.417,10.212,10.212,0,0,1,5.021,1.852l.746.564-.473-.807a8.857,8.857,0,0,1-.594-1.193.317.317,0,0,1,.052-.3.314.314,0,0,1,.28-.114c5.724.685,7.149,4.2,7.449,5.259l.038.135h6.474a.314.314,0,0,1,.221.092.313.313,0,0,1-.22.533H396.48l-.039.135c-.022.077-.049.164-.081.258-.445,1.288-2.053,4.354-7.37,4.988a.309.309,0,0,1-.282-.117.367.367,0,0,1-.044-.318,9.368,9.368,0,0,1,.58-1.156l.465-.8-.738.554a10.251,10.251,0,0,1-5.012,1.833.311.311,0,0,1-.282-.117.281.281,0,0,1-.054-.288,8.667,8.667,0,0,1,.59-1.185l.465-.8-.738.554a10.253,10.253,0,0,1-5.012,1.832.313.313,0,0,1-.283-.116.341.341,0,0,1-.044-.316,9.107,9.107,0,0,1,.58-1.158l.467-.8-.74.555a10.244,10.244,0,0,1-5.012,1.833.32.32,0,0,1-.283-.117c-.053-.067-.062-.147-.038-.341a10.873,10.873,0,0,1,.575-1.132l.467-.8-.739.555a10.256,10.256,0,0,1-5.013,1.832.313.313,0,0,1-.327-.431,9.8,9.8,0,0,1,3.977-4.6l.623-.35h-2.419l-.047.031c-4.079,2.727-8.319.472-9.128-.009l-.044-.026h-7.25A.314.314,0,0,1,353.936,458.868Zm15.77-4.941-.382-.073.182.344a7.8,7.8,0,0,0,5.9,4.3l.3.036-.106-.286C375.223,457.216,373.883,454.721,369.706,453.927Zm6.611,4.5.038.135h1.833l-.628-.349a8.09,8.09,0,0,1-1.3-.9l-.662-.564.373.786A5.7,5.7,0,0,1,376.317,458.427Zm-.713,2.563.663-.563a8.128,8.128,0,0,1,1.281-.89l.623-.35h-1.814l-.039.134c-.023.078-.05.165-.082.26a6.02,6.02,0,0,1-.258.624Zm-.866-7.061-.382-.073.182.344a7.8,7.8,0,0,0,5.9,4.3l.3.036-.106-.286C380.254,457.218,378.914,454.723,374.738,453.929Zm6.61,4.5.039.136h1.831l-.625-.349a8.163,8.163,0,0,1-1.3-.9l-.662-.564.373.786A5.725,5.725,0,0,1,381.348,458.427Zm-.712,2.563.662-.562a8.138,8.138,0,0,1,1.28-.891l.623-.349h-1.814l-.039.134c-.023.078-.049.165-.082.26a6.12,6.12,0,0,1-.258.624Zm-.866-7.06-.382-.072.182.343a7.8,7.8,0,0,0,5.9,4.3l.3.036-.106-.286C385.191,456.968,383.792,454.7,379.769,453.931Zm6.61,4.5.038.135h1.832l-.626-.35a8.2,8.2,0,0,1-1.3-.9l-.663-.563.373.785A5.668,5.668,0,0,1,386.379,458.429Zm-.713,2.562.662-.561a8.185,8.185,0,0,1,1.28-.89l.623-.349h-1.814l-.039.136c-.022.077-.049.164-.082.258a5.874,5.874,0,0,1-.258.624Zm-.866-7.059-.382-.073.182.344a7.8,7.8,0,0,0,5.9,4.3l.3.036-.106-.286C390.224,456.97,388.825,454.7,384.8,453.932Zm6.611,4.5.039.135h1.831l-.626-.349a8.152,8.152,0,0,1-1.3-.9l-.663-.563.373.785A5.686,5.686,0,0,1,391.411,458.43Zm-.712,2.563.662-.562a8.156,8.156,0,0,1,1.28-.891l.623-.349h-1.814l-.039.135c-.022.077-.049.164-.082.258a6.076,6.076,0,0,1-.258.625Zm5.032-2.736c-.382-1.035-1.722-3.531-5.9-4.324l-.382-.073.182.344a7.8,7.8,0,0,0,5.9,4.3l.3.036Zm-6.1,5.286-.182.343.382-.073c4.024-.763,5.424-3.035,5.9-4.321l.106-.286-.3.036A7.794,7.794,0,0,0,389.629,463.543Zm-5.031,0-.182.343.382-.073c4.024-.762,5.425-3.035,5.9-4.321l.107-.286-.3.036A7.8,7.8,0,0,0,384.6,463.542Zm-5.031,0-.182.343.382-.073c4.175-.791,5.518-3.286,5.9-4.321l.106-.286-.3.035A7.8,7.8,0,0,0,379.567,463.54Zm-5.031,0-.182.343.382-.073c4.175-.792,5.518-3.286,5.9-4.321l.107-.286-.3.035A7.8,7.8,0,0,0,374.536,463.539Zm-5.031,0-.183.343.382-.073c4.176-.791,5.519-3.285,5.9-4.321l.106-.285-.3.035A7.8,7.8,0,0,0,369.5,463.537Zm-6.936-4.493a9.06,9.06,0,0,0,3.766.881,7.032,7.032,0,0,0,3.528-.932l.266-.151-.255-.167c-1.146-.75-3.621-1.743-7.306.032l-.354.171Z" transform="translate(-353.936 -453.165)" fill="#fed070"/></svg>