<svg xmlns="http://www.w3.org/2000/svg" width="49.331" height="11.412" viewBox="0 0 49.331 11.412"><g transform="translate(-1075.429 -1100.996)"><path d="M403.267,458.868a.315.315,0,0,0-.314-.312l-7.265,0-.043-.023c-5.129-2.859-8.3-.737-9.148-.018l-.052.044h-2.4l.626-.35a9.8,9.8,0,0,0,3.993-4.628.316.316,0,0,0-.051-.3.309.309,0,0,0-.28-.115,10.2,10.2,0,0,0-5.022,1.853l-.747.565.474-.808a8.574,8.574,0,0,0,.593-1.19.312.312,0,0,0-.33-.417,10.205,10.205,0,0,0-5.021,1.852l-.747.565.474-.808a8.642,8.642,0,0,0,.594-1.193.312.312,0,0,0-.331-.415,10.215,10.215,0,0,0-5.021,1.852l-.748.565.474-.808a8.593,8.593,0,0,0,.593-1.189.312.312,0,0,0-.33-.417,10.212,10.212,0,0,0-5.021,1.852l-.746.564.473-.807a8.857,8.857,0,0,0,.594-1.193.317.317,0,0,0-.052-.3.314.314,0,0,0-.28-.114c-5.724.685-7.149,4.2-7.449,5.259l-.038.135h-6.474a.314.314,0,0,0-.221.092.313.313,0,0,0,.22.533h6.476l.039.135c.022.077.049.164.081.258.445,1.288,2.053,4.354,7.37,4.988a.309.309,0,0,0,.282-.117.367.367,0,0,0,.044-.318,9.368,9.368,0,0,0-.58-1.156l-.465-.8.738.554a10.251,10.251,0,0,0,5.012,1.833.311.311,0,0,0,.282-.117.281.281,0,0,0,.054-.288,8.667,8.667,0,0,0-.59-1.185l-.465-.8.738.554a10.253,10.253,0,0,0,5.012,1.832.313.313,0,0,0,.283-.116.341.341,0,0,0,.044-.316,9.107,9.107,0,0,0-.58-1.158l-.467-.8.74.555a10.244,10.244,0,0,0,5.012,1.833.32.32,0,0,0,.283-.117c.053-.067.062-.147.038-.341a10.873,10.873,0,0,0-.575-1.132l-.467-.8.739.555a10.256,10.256,0,0,0,5.013,1.832.313.313,0,0,0,.327-.431,9.8,9.8,0,0,0-3.977-4.6l-.623-.35h2.419l.047.031c4.079,2.727,8.319.472,9.128-.009l.044-.026h7.25A.314.314,0,0,0,403.267,458.868Zm-15.77-4.941.382-.073-.182.344a7.8,7.8,0,0,1-5.9,4.3l-.3.036.106-.286C381.98,457.216,383.32,454.721,387.5,453.927Zm-6.611,4.5-.038.135h-1.833l.628-.349a8.09,8.09,0,0,0,1.3-.9l.662-.564-.373.786A5.7,5.7,0,0,0,380.886,458.427Zm.713,2.563-.663-.563a8.128,8.128,0,0,0-1.281-.89l-.623-.35h1.814l.039.134c.023.078.05.165.082.26a6.02,6.02,0,0,0,.258.624Zm.866-7.061.382-.073-.182.344a7.8,7.8,0,0,1-5.9,4.3l-.3.036.106-.286C376.949,457.218,378.29,454.723,382.465,453.929Zm-6.61,4.5-.039.136h-1.831l.625-.349a8.163,8.163,0,0,0,1.3-.9l.662-.564-.373.786A5.725,5.725,0,0,0,375.855,458.427Zm.712,2.563-.662-.562a8.138,8.138,0,0,0-1.28-.891l-.623-.349h1.814l.039.134c.023.078.049.165.082.26a6.12,6.12,0,0,0,.258.624Zm.866-7.06.382-.072-.182.343a7.8,7.8,0,0,1-5.9,4.3l-.3.036.106-.286C372.012,456.968,373.411,454.7,377.434,453.931Zm-6.61,4.5-.038.135h-1.832l.626-.35a8.2,8.2,0,0,0,1.3-.9l.663-.563-.373.785A5.668,5.668,0,0,0,370.824,458.429Zm.713,2.562-.662-.561a8.185,8.185,0,0,0-1.28-.89l-.623-.349h1.814l.039.136c.022.077.049.164.082.258a5.874,5.874,0,0,0,.258.624Zm.866-7.059.382-.073-.182.344a7.8,7.8,0,0,1-5.9,4.3l-.3.036.106-.286C366.979,456.97,368.378,454.7,372.4,453.932Zm-6.611,4.5-.039.135h-1.831l.626-.349a8.152,8.152,0,0,0,1.3-.9l.663-.563-.373.785A5.686,5.686,0,0,0,365.792,458.43Zm.712,2.563-.662-.562a8.156,8.156,0,0,0-1.28-.891l-.623-.349h1.814l.039.135c.022.077.049.164.082.258a6.076,6.076,0,0,0,.258.625Zm-5.032-2.736c.382-1.035,1.722-3.531,5.9-4.324l.382-.073-.182.344a7.8,7.8,0,0,1-5.9,4.3l-.3.036Zm6.1,5.286.182.343-.382-.073c-4.024-.763-5.424-3.035-5.9-4.321l-.106-.286.3.036A7.794,7.794,0,0,1,367.574,463.543Zm5.031,0,.182.343-.382-.073c-4.024-.762-5.425-3.035-5.9-4.321l-.107-.286.3.036A7.8,7.8,0,0,1,372.605,463.542Zm5.031,0,.182.343-.382-.073c-4.175-.791-5.518-3.286-5.9-4.321l-.106-.286.3.035A7.8,7.8,0,0,1,377.636,463.54Zm5.031,0,.182.343-.382-.073c-4.175-.792-5.518-3.286-5.9-4.321l-.107-.286.3.035A7.8,7.8,0,0,1,382.667,463.539Zm5.031,0,.183.343-.382-.073c-4.176-.791-5.519-3.285-5.9-4.321l-.106-.285.3.035A7.8,7.8,0,0,1,387.7,463.537Zm6.936-4.493a9.06,9.06,0,0,1-3.766.881,7.032,7.032,0,0,1-3.528-.932l-.266-.151.255-.167c1.146-.75,3.621-1.743,7.306.032l.354.171Z" transform="translate(721.493 647.832)" fill="#fed070"/></g></svg>