<svg xmlns="http://www.w3.org/2000/svg" width="28.039" height="28.556" viewBox="0 0 28.039 28.556"><g transform="matrix(0.995, -0.105, 0.105, 0.995, -443.385, -509.509)"><g transform="translate(387.42 555.71)"><path d="M412.734,563.727a8.809,8.809,0,0,0-10.6-.076,11.962,11.962,0,0,1,5.634-6.4.289.289,0,0,0,.058-.452c-.554-.467-1.315-1.157-2.1-1.087-.826.073-1.915,1.334-2.408,1.912a10,10,0,0,0-2.165,4.342c-.989-2.489-4.357-4.22-6.7-4.392-.255-.019-.278.308-.116.43a20.528,20.528,0,0,1,4.093,4.027c-4.059-1.075-8.881-.206-10.388,4.281-1.32,3.929-.7,10.285,3.457,12.386,2.265,1.144,4.946,1.071,7.289,2.071a9.324,9.324,0,0,0,6.941.522c3.594-1.242,7.051-4.948,6.725-8.952a9.7,9.7,0,0,0-6.343-8.005,57.038,57.038,0,0,1,6.467-.026C412.912,564.323,412.968,563.9,412.734,563.727Zm-1.135,9.539c-.023,2.624-1.981,4.818-4.053,6.208-2.774,1.86-5.665,1.663-8.622.4A37.939,37.939,0,0,0,393.2,578.4c-3.077-.8-4.618-3.413-5-6.44-.335-2.65.13-5.886,2.153-7.812,2.249-2.14,5.581-2.13,8.454-1.574q.241.352.467.723c-2.918.169-5.766,1.148-7.564,3.576-.146.2.131.427.32.32a16.822,16.822,0,0,1,7.718-2.009,26.833,26.833,0,0,0-.3,7.314c.039.361.63.527.7.095a27.566,27.566,0,0,1,2.188-6.564c2.419,1.456,4.748,3.046,7.061,4.664.34.238.66-.21.517-.517a10.986,10.986,0,0,0-4.238-4.915C408.861,566.736,411.631,569.536,411.6,573.267Zm-8.508-8.981c-.256.056-.2.381,0,.462a11.009,11.009,0,0,1,5.457,4.338,51.583,51.583,0,0,0-6.1-3.882h0c-.088.056-.179.1-.211.131-.139.118-.269.248-.4.378a13.382,13.382,0,0,0-1.766,4.415,27.7,27.7,0,0,1,.423-5.219.355.355,0,0,0-.337-.443,15.989,15.989,0,0,0-6.878,1.573,11.819,11.819,0,0,1,6.531-2.142.316.316,0,0,0,.27-.471,20.937,20.937,0,0,0-4.455-5.035,8.817,8.817,0,0,1,3.218,1.983,9.824,9.824,0,0,1,1.124,1.476c.094.135.994,1.323,1.278,1.815a9.461,9.461,0,0,1,.964-3.064c.24-.464.437-.951.719-1.4a9.948,9.948,0,0,1,1.509-1.849c1-.968,1.624-1.12,2.68-.367a12.675,12.675,0,0,0-5.7,7.242.128.128,0,0,0-.013.077.245.245,0,0,0,0,.035,7.759,7.759,0,0,1,.864-.4c.1-.042.2-.089.308-.137a8.839,8.839,0,0,1,8.852-.145A34.5,34.5,0,0,0,403.091,564.285Z" transform="translate(-387.42 -555.71)" fill="#fed070"/><path d="M429.294,611.623a6.587,6.587,0,0,0-1.2-.153,4.62,4.62,0,0,1-1.374-.425.231.231,0,0,0-.233.4c.707.517,2.037,1.029,2.833.415A.13.13,0,0,0,429.294,611.623Z" transform="translate(-410.545 -588.533)" fill="#fed070"/><path d="M434.674,607.92c-.424-.112-.807.029-1.187-.27-.292-.23-.7.145-.42.42.42.41,1.217.755,1.733.328A.288.288,0,0,0,434.674,607.92Z" transform="translate(-414.455 -586.493)" fill="#fed070"/></g><path d="M394.251,596.027c-.122-.2-.328-.233-.533-.313a1.175,1.175,0,0,1-.482-.367c-.21-.255-.644.08-.459.354a1.772,1.772,0,0,0,.622.581c.247.134.6.25.817.007A.222.222,0,0,0,394.251,596.027Z" transform="translate(-3.153 -23.47)" fill="#fed070"/><path d="M396.187,600.612a.2.2,0,0,0,0,.407A.2.2,0,0,0,396.187,600.612Z" transform="translate(-5.086 -26.649)" fill="#fed070"/></g></svg>